<?xml version="1.0" encoding="utf-8"?>
<!-- Generator: Adobe Illustrator 25.3.1, SVG Export Plug-In . SVG Version: 6.00 Build 0)  -->
<svg version="1.1" id="图层_1" xmlns="http://www.w3.org/2000/svg" xmlns:xlink="http://www.w3.org/1999/xlink" x="0px" y="0px"
	 viewBox="0 0 1600 1600" style="enable-background:new 0 0 1600 1600;" xml:space="preserve">
<style type="text/css">
	.st0{fill:#90CC00;}
</style>
<path class="st0" d="M798.711853,86.5928345c0.5490723-0.6278229,1.0205688-1.169754,1.0205688-1.169754
	s0.3544312,0.4162674,0.9747925,1.1558304c1.9422607,2.3153305,6.9478149,9.405304,19.90802,28.5045853
	c7.4000244,11,18.5,27,24.5999756,35.5c26.3000488,36.5,39.8000488,58.1000061,50.1000366,79.6000061
	c23.7999878,49.7999878,25.7000122,92,5.7999878,130.3999939c-10.4000244,19.8999939-25,36.8999939-55.4000244,63.7999878
	c-21.6999512,19.3000183-32.5,29.7000122-40.0999756,38.4000244l-5.9000244,6.7999878l-3.1999512-3.7999878
	C789.8152466,457.98349,768.6152344,437.48349,753.71521,424.48349
	c-44.5999756-39.1999817-62.7999878-66.6000061-68.0999756-102.8999939c-1.7000122-12.2000122-0.5999756-33.7999878,2.5-47
	c8.2000122-35.1999969,23.7999878-64.6999969,63.2999878-120.1000061
	c7.7000122-10.6999969,20.1000366-28.5999985,27.7000122-39.6999969c7.5-11.1999969,15.0999756-22.3000031,16.7999878-24.6999969
	C796.9360962,88.6656494,797.9924927,87.4154129,798.711853,86.5928345z M1483.21521,364.2835083
	c-37.5,0.5999756-80.8999023,2.5-90.6999512,3.8999939c-45.2000732,6.2999878-75.0999756,29-86.2000732,65.6000061
	c-1.5999756,5.0999756-3.5,16.5-5.0999756,29.7999878c-2.7999268,23.2000122-4.7999268,35.3000183-7,44.1000061
	c-1.4562988,5.5826721-1.7069092,9.8072205-1.7069092,9.8072205s2.5410156,0.0927734,4.506958,0.0927734
	c5.5999756,0,28.6999512,3.4000244,43.9000244,6.5c23.0999756,4.7999878,44,5.0999756,60.0999756,1
	c19.6999512-5.0999756,37.5999756-18.1999817,50.5999756-37c12.2000732-17.7000122,18-31.3999939,35.5-83.8999939
	c4.647583-13.8617554,7.7108154-23.2321167,9.5528564-29.4311829c1.7355957-5.8406677,3.5125732-11.1966248,3.5125732-11.1966248
	l-2.1654053,0.2278137C1497.6152344,363.8834839,1490.9152832,364.0834961,1483.21521,364.2835083z M99.3517914,364.5612488
	c0,0,1.1857529,3.7727966,2.568573,8.0782471c6.7006531,20.8627625,26.562027,78.4836121,29.7948608,85.9440002
	c19.4000092,44.3999939,44.8000031,65.4000244,83.3000031,69c11.6999969,1.0999756,26.8000031-0.2000122,45.7999878-3.9000244
	c16.3000183-3.1999512,36.6000061-6.0999756,42.6000061-6.0999756c1.5750122,0,3.5174561,0.0186157,3.5174561,0.0186157
	s-0.1799316-1.6810913-0.5174561-3.8186035c-0.2999878-2-1.5-8-2.6000061-13.2000122
	c-1.0999756-5.1999817-3.3999939-20.5-5.0999756-34c-1.7000122-13.5-4-27.7000122-5.1000061-31.5
	c-11.5-38.7000122-42-61.5-90.4000092-67.3999939c-13.1338043-1.6035461-66.558075-3.2070923-91.0837555-3.1187744
	C104.5383759,364.5921021,99.3517914,364.5612488,99.3517914,364.5612488z M536.21521,406.1835022
	c-25.7999878,4-63.1999817,12.2999878-77.9999695,17.3999939c-41.8999939,14.5-82.1000061,37.6000061-118.5,68.1000061
	c-48.3000183,40.6000061-77,81.8000183-99.5000153,142.8999939c-11.1999969,30.5-14.6999969,45.2000122-21.5,88.7999878
	c-5.3000031,34.5-6.5,53.5-5.0999908,80.3000488c4.3999939,82,30.2999878,167.6999512,69.8999939,231.3999634
	c17,27.3000488,33.8999939,48.1999512,58.7999878,72.5c38.2000122,37.3000488,78.7000122,65.3999023,172.8999939,120.1999512
	c14.6257324,9.6809082,33.430481,18.4067383,46.3308105,24.3886719c12.6550293,5.605957,20.9858398,10.411377,21.7692261,10.411377
	c1,0,37.8999634,19.9000244,48.8999634,26.3000488c43.1000366,25.0999756,72.3000488,51.4000244,99.3000488,89.4000244
	c8.0999756,11.3999023,14.5999756,22.0999756,29,47.7999268c22.7999878,41,33.0999756,63.9000244,37.1999512,83.2000732
	c0,0,1.4104614,5.293335,2.0032959,5.293335s2.0025635-5.1682129,2.0025635-5.1682129
	c5.1090088-21.8991699,14.5459595-42.3710938,38.5941772-85.4251709c21.5999756-38.8000488,36.5-60.0999756,56.7999878-81.1999512
	c29.9000244-31,57.4000244-49,130.5999756-85.5c30.5439453-14.8571777,40.6922607-19.5223389,70.2883301-37.5341797
	c5.8937988-3.5183105,54.1617432-32.2158203,77.7116699-47.7658691c63.5999756-42,108.5-85.7000732,140-136.5
	c40-64.4000244,66.1000977-150.9000244,70-231.9000244c1.3000488-26.8999634,0-48.0999756-5-80.2999878
	c-6.5-42.5-10.2999268-58.2000122-20.9000244-86.9000244C1336.21521,572.0834961,1308.71521,532.6834717,1257.71521,489.98349
	c-29.7999268-24.8999939-66.1999512-46.6999817-101.5-60.6999817c-16.5-6.6000061-25.6999512-9.3000183-47.0999756-14.1000061
	c-40-8.8999939-45.3549805-9.6607056-68.7392578-9.6607056c-21.3000488,0-28.4607544,1.0606995-40.56073,2.9606934
	c-47.1000366,7.3000183-90.7000122,25.1000061-124.6000366,50.8999939c-9.6999512,7.5-29,26.9000244-33.8999634,34.2000122
	c-6.9000244,10.2000122-10.6000366,18.7000122-10.6000366,24.0999756c0,11.8000488,9.9000244,33.2000122,22.3000488,48.2000122
	c3.8999634,4.7000122,13,11.7000122,15.2999878,11.7000122c1.3283081-0.0927734,4-4.2000122,7.3999634-9.2999878
	c20.3000488-29.7000122,29.4000244-39.7999878,46-50.7999878c24.7000122-16.4000244,46.2000122-23.6000061,94.500061-31.6000061
	c15.5999146-2.5,42.0999146-2.3000183,61.3999634,0.5999756c23,3.5,51.3000488,11.2000122,71.5999756,19.6000061
	c48.5,19.9000244,93.2000732,61.2999878,121.4000244,112.2999878c17.1999512,31,31.3000488,74.7000122,36.6999512,113.1000366
	c2.1000977,15.3999634,2.9000244,44.5,1.5,57.5999756c-12,112.2999878-65.3999023,208.4000244-151.5,273
	c-18.8999023,14.0999756-29.1999512,20.5999756-69.0999756,43.5c-37.4000244,21.5-52.7999268,29.0999756-95.499939,47.4000244
	c-55.3000488,23.5999756-72.000061,31.8000488-93.500061,46.0999756c-31,20.5-59.6999512,52-84,92
	c-11.6999512,19.4000244-15.5837402,23.9456787-15.5837402,23.9456787s-5.5162354-7.8457031-20.8162231-32.7456055
	c-12.7999878-20.7000732-36.6000366-49-54.1000366-64.3000488c-25.5999756-22.3000488-47.6999512-34.9000244-104.6999512-59.3000488
	c-62-26.5999756-66.8000488-28.8999023-109.9000244-53.6999512
	c-58.7000122-33.7000732-77.3999939-47.2000732-108.3999939-78.3000488
	c-32.1000061-32.0999756-52.3000183-60.3999634-72-100.5999756c-18.7000122-38.0999756-29.6000061-73.7000122-37.2000122-121.5
	c-3.1000061-20-3.2000122-54.7999878,0-75.0999756c8.5-55.5,28.7999878-105.5,59-145.7000122
	c24.1000061-32.1000366,58.8000183-60,93.8999939-75.6000061c20.5-9.1000061,51.6000061-17.8999939,76.4000244-21.7000122
	c19.2000122-2.8999939,45.7000122-3.1999817,61.3999634-0.5999756c44.7000122,7.3999939,64.7000122,13.5,85.8000488,26
	c20.2999878,12.1000061,32.6999512,24.2999573,49.5999756,48.9999695c9.7999878,14.2999878,10.9912109,17.2915649,13.5,16.1000366
	c14.5-4.2000122,36.5999756-40.2000122,36.5999756-59.4000244c0-9.3999939-10.0999756-25.8999939-24.5999756-40.3999939
	c-36-36.1000061-87.2999878-60.1000061-147.9000244-69.2000122
	C586.5152588,406.48349,554.2377319,404.0318298,536.21521,406.1835022z M540.6152344,590.0834961
	c-17.5,3.0999756-24.2000122,4.7999878-35.3999939,9.2000122c-51.8000183,20.3999634-85.3000183,59.0999756-98.3000183,113.7999878
	c-2.3999939,9.7999878-3.1947327,13.1552124-3.1947327,30.1552124c-0.1000061,16.8000488,0.7947388,19.8447876,2.8947449,27.8447876
	c5,19.1000366,14.7999878,40.2999878,27.1000061,58.7000122c8.1999817,12.2999878,14.1999817,19.2000122,30.1999817,35.5
	c8.2875061,8.3687134,11.793335,12.3016968,11.793335,12.3016968s-1.7183228-0.001709-2.0933228-0.001709
	c-1.2999878,0-6.7000122,0.5-11.8999939,1c-37,3.9000244-63.8999939,21-82.6000061,52.6000366
	c-2.5,4.1999512-4.3980713,8.3980103-4.3980713,8.3980103s3.6980591-1.2980347,7.0980835-3.0980225
	c23.3999939-11.7999878,50.5999756-18.9000244,72.5-18.9000244c18.8999939,0,34.7999878,4.4000244,66.3999634,18.2000122
	c64.2000122,28.2999878,109,54.2999878,170,98.7999878c18.7000122,13.6999512,22.6817017,15.9364014,22.6817017,15.9364014
	s-11.2816772-19.8364258-16.9816895-27.9364014c-13.7000122-19.5-29.2999878-36-72.0999756-76.5
	c-39.6000366-37.3999634-59.7000122-66.0999756-73.9000244-105.5c-13-36.0999756-12.8999634-72.2999878,0.4000244-106.5
	c18.0999756-46.7999878,60.2999878-80.7999878,100.3999634-80.9000244c10.6000366,0,15.8000488,0.9000244,32.4000244,5.5
	c5.7999878,1.5,11.1000366,2.895813,11.1000366,2.895813s-5.1000366-10.4957886-11.7000122-20.6958008
	c-17.4000244-26.5999756-43.8000488-43.5999756-78-50.2999878c-8.1000366-1.5999756-16.2576294-3.057251-36.9472656-3.050354
	C554.7310791,587.4643555,552.8152466,587.8834839,540.6152344,590.0834961z M1009.215271,588.1834717
	c-32.6000366,3.4000244-61.9000244,16.9000244-80.4000244,37c-16.3918457,17.5274048-24.1005859,36.401062-24.1005859,36.401062
	s5.4005737-1.3010254,11.1005859-2.901062c16.0999756-4.5999756,21.5999756-5.5,32.8999634-5.3999634
	c13.2000122,0.0999756,22.9000244,2.5999756,36.500061,9.2000122c35,17.1999512,61.3999634,52.7999878,70.7000122,95.3999634
	c3.1999512,14.9000244,3.1999512,44.6000366,0,59.6000366c-6.6000977,30.2000122-23.6000977,64.2999878-45.8000488,92.0999756
	c-7.7000122,9.5-29.8999634,32-60.0999756,60.7999878c-26.1000366,24.8000488-40.7000122,41.8000488-53.7000122,62.1000366
	c-5.6000366,8.6999512-9.4833374,18.0999756-9.4833374,18.0999756s3.583313-2.5,5.9833374-4.4000244
	c46.5999756-35.3999634,96.2000122-66.7999878,141.8999634-89.5999756c45.4000244-22.7000122,73.9000244-34.2000122,92.7000732-37.5
	c25.2999268-4.3999634,57.6999512,1.6000366,88.1999512,16.4000244c4.6999512,2.2000122,9.0986328,4.0900879,9.0986328,4.0900879
	s-1.0986328-2.9901123-2.5986328-5.6901245c-19.3000488-33.6999512-46.8000488-51.5-85.8000488-55.3999634
	c-6.0999756-0.6000366-11.592041-0.8774414-11.592041-0.8774414s5.1921387-6.4225464,11.7921143-13.2225952
	c16.5-16.8999634,21.1999512-22.5,29.6999512-35.2999878c12.5-18.7999878,23-42,27.0999756-60
	c3.3840332-12.117981,3.503418-37.4230347,0-52.5c-11-51.0999756-40.7999268-89.7000122-86-111.5
	c-24.1999512-11.5999756-50.4938965-17.5578003-74.4780273-17.5184937
	C1020.6939697,587.5256958,1011.4152222,587.9835205,1009.215271,588.1834717z M136.2152252,829.7835083
	c-8.8999939,2.2000122-22.2999954,7-27.1999969,9.7999878c-2.8000031,1.6000366-12,8.5-20.5,15.2999878
	c-8.4000015,6.7000122-19.5999985,15.3000488-24.8000031,18.9000244c-5.2999992,3.5999756-10.2999992,7.5-11.1999969,8.5
	c-0.6374969,0.6749878-1.7821388,1.7880859-1.7821388,1.7880859s2.1571274,1.3369141,5.2821388,3.2119141
	c2.7999992,1.5999756,11.0999985,6.5999756,18.1999969,11c38.3000031,23.5,61.6999969,31.7000122,82.9000092,29.2000122
	c13.3999939-1.7000122,20.8999939-7.1000366,40.2999878-29.4000244
	c5.8000031-6.5999756,13.3000031-14.5999756,16.6000061-17.7999878l6.1999969-5.7999878l-4.3999939-3.7000122
	c-2.5-2-10.5-9.2000122-17.8000031-15.9000244c-14.1000061-13-18.6999969-16.5-27-20.6999512
	C161.0152283,829.1835327,146.3152313,827.2835083,136.2152252,829.7835083z M1439.5152588,830.1835327
	c-11.9000244,2.7999878-20.5999756,8.3999634-36.5999756,23.5999756c-6.3000488,6-13.9000244,12.7999878-16.9000244,15
	c-3.6661377,3.0812378-6.2443848,6.0971069-6.2443848,6.0971069s1.9359131,2.0115967,3.5444336,3.3029175
	c1.3999023,1,8.5,8.5,15.7999268,16.7999878c16.2000732,18.5,24.5,26.2000122,31.0999756,29.2000122
	c13.3000488,6.0999756,33.1000977,4.5,54.5-4.3000488c11.3000488-4.5999756,21.7000732-10.1999512,44.7000732-24.0999756
	c11.1733398-6.7838135,19.8516846-11.7675781,19.8516846-11.7675781s-6.4813232-5.368042-15.0517578-11.4324341
	c-6-4.2999878-17.5-13.0999756-25.5-19.5c-16.6999512-13.3999634-25.5-18.0999756-40.6999512-21.8999634
	C1456.71521,828.2835083,1448.3153076,827.9835205,1439.5152588,830.1835327z"/>
</svg>
