<?xml version="1.0" encoding="utf-8"?>
<!-- Generator: Adobe Illustrator 25.3.1, SVG Export Plug-In . SVG Version: 6.00 Build 0)  -->
<svg version="1.1" id="图层_1" xmlns="http://www.w3.org/2000/svg" xmlns:xlink="http://www.w3.org/1999/xlink" x="0px" y="0px"
	 viewBox="0 0 1600 1600" style="enable-background:new 0 0 1600 1600;" xml:space="preserve">
<style type="text/css">
	.st0{display:none;fill:#90CC00;}
	.st1{display:none;fill:#FF6640;}
	.st2{display:none;fill:#00C0FF;}
	.st3{fill:#CC80FF;}
</style>
<path class="st0" d="M798.711853,86.5928345c0.5490723-0.6278229,1.0205688-1.169754,1.0205688-1.169754
	s0.3544312,0.4162674,0.9747925,1.1558304c1.9422607,2.3153305,6.9478149,9.405304,19.90802,28.5045853
	c7.4000244,11,18.5,27,24.5999756,35.5c26.3000488,36.5,39.8000488,58.1000061,50.1000366,79.6000061
	c23.7999878,49.7999878,25.7000122,92,5.7999878,130.3999939c-10.4000244,19.8999939-25,36.8999939-55.4000244,63.7999878
	c-21.6999512,19.3000183-32.5,29.7000122-40.0999756,38.4000244l-5.9000244,6.7999878l-3.1999512-3.7999878
	C789.8152466,457.98349,768.6152344,437.48349,753.71521,424.48349
	c-44.5999756-39.1999817-62.7999878-66.6000061-68.0999756-102.8999939c-1.7000122-12.2000122-0.5999756-33.7999878,2.5-47
	c8.2000122-35.1999969,23.7999878-64.6999969,63.2999878-120.1000061
	c7.7000122-10.6999969,20.1000366-28.5999985,27.7000122-39.6999969c7.5-11.1999969,15.0999756-22.3000031,16.7999878-24.6999969
	C796.9360962,88.6656494,797.9924927,87.4154129,798.711853,86.5928345z M1483.21521,364.2835083
	c-37.5,0.5999756-80.8999023,2.5-90.6999512,3.8999939c-45.2000732,6.2999878-75.0999756,29-86.2000732,65.6000061
	c-1.5999756,5.0999756-3.5,16.5-5.0999756,29.7999878c-2.7999268,23.2000122-4.7999268,35.3000183-7,44.1000061
	c-1.4562988,5.5826721-1.7069092,9.8072205-1.7069092,9.8072205s2.5410156,0.0927734,4.506958,0.0927734
	c5.5999756,0,28.6999512,3.4000244,43.9000244,6.5c23.0999756,4.7999878,44,5.0999756,60.0999756,1
	c19.6999512-5.0999756,37.5999756-18.1999817,50.5999756-37c12.2000732-17.7000122,18-31.3999939,35.5-83.8999939
	c4.647583-13.8617554,7.7108154-23.2321167,9.5528564-29.4311829c1.7355957-5.8406677,3.5125732-11.1966248,3.5125732-11.1966248
	l-2.1654053,0.2278137C1497.6152344,363.8834839,1490.9152832,364.0834961,1483.21521,364.2835083z M99.3517914,364.5612488
	c0,0,1.1857529,3.7727966,2.568573,8.0782471c6.7006531,20.8627625,26.562027,78.4836121,29.7948608,85.9440002
	c19.4000092,44.3999939,44.8000031,65.4000244,83.3000031,69c11.6999969,1.0999756,26.8000031-0.2000122,45.7999878-3.9000244
	c16.3000183-3.1999512,36.6000061-6.0999756,42.6000061-6.0999756c1.5750122,0,3.5174561,0.0186157,3.5174561,0.0186157
	s-0.1799316-1.6810913-0.5174561-3.8186035c-0.2999878-2-1.5-8-2.6000061-13.2000122
	c-1.0999756-5.1999817-3.3999939-20.5-5.0999756-34c-1.7000122-13.5-4-27.7000122-5.1000061-31.5
	c-11.5-38.7000122-42-61.5-90.4000092-67.3999939c-13.1338043-1.6035461-66.558075-3.2070923-91.0837555-3.1187744
	C104.5383759,364.5921021,99.3517914,364.5612488,99.3517914,364.5612488z M536.21521,406.1835022
	c-25.7999878,4-63.1999817,12.2999878-77.9999695,17.3999939c-41.8999939,14.5-82.1000061,37.6000061-118.5,68.1000061
	c-48.3000183,40.6000061-77,81.8000183-99.5000153,142.8999939c-11.1999969,30.5-14.6999969,45.2000122-21.5,88.7999878
	c-5.3000031,34.5-6.5,53.5-5.0999908,80.3000488c4.3999939,82,30.2999878,167.6999512,69.8999939,231.3999634
	c17,27.3000488,33.8999939,48.1999512,58.7999878,72.5c38.2000122,37.3000488,78.7000122,65.3999023,172.8999939,120.1999512
	c14.6257324,9.6809082,33.430481,18.4067383,46.3308105,24.3886719c12.6550293,5.605957,20.9858398,10.411377,21.7692261,10.411377
	c1,0,37.8999634,19.9000244,48.8999634,26.3000488c43.1000366,25.0999756,72.3000488,51.4000244,99.3000488,89.4000244
	c8.0999756,11.3999023,14.5999756,22.0999756,29,47.7999268c22.7999878,41,33.0999756,63.9000244,37.1999512,83.2000732
	c0,0,1.4104614,5.293335,2.0032959,5.293335s2.0025635-5.1682129,2.0025635-5.1682129
	c5.1090088-21.8991699,14.5459595-42.3710938,38.5941772-85.4251709c21.5999756-38.8000488,36.5-60.0999756,56.7999878-81.1999512
	c29.9000244-31,57.4000244-49,130.5999756-85.5c30.5439453-14.8571777,40.6922607-19.5223389,70.2883301-37.5341797
	c5.8937988-3.5183105,54.1617432-32.2158203,77.7116699-47.7658691c63.5999756-42,108.5-85.7000732,140-136.5
	c40-64.4000244,66.1000977-150.9000244,70-231.9000244c1.3000488-26.8999634,0-48.0999756-5-80.2999878
	c-6.5-42.5-10.2999268-58.2000122-20.9000244-86.9000244C1336.21521,572.0834961,1308.71521,532.6834717,1257.71521,489.98349
	c-29.7999268-24.8999939-66.1999512-46.6999817-101.5-60.6999817c-16.5-6.6000061-25.6999512-9.3000183-47.0999756-14.1000061
	c-40-8.8999939-45.3549805-9.6607056-68.7392578-9.6607056c-21.3000488,0-28.4607544,1.0606995-40.56073,2.9606934
	c-47.1000366,7.3000183-90.7000122,25.1000061-124.6000366,50.8999939c-9.6999512,7.5-29,26.9000244-33.8999634,34.2000122
	c-6.9000244,10.2000122-10.6000366,18.7000122-10.6000366,24.0999756c0,11.8000488,9.9000244,33.2000122,22.3000488,48.2000122
	c3.8999634,4.7000122,13,11.7000122,15.2999878,11.7000122c1.3283081-0.0927734,4-4.2000122,7.3999634-9.2999878
	c20.3000488-29.7000122,29.4000244-39.7999878,46-50.7999878c24.7000122-16.4000244,46.2000122-23.6000061,94.500061-31.6000061
	c15.5999146-2.5,42.0999146-2.3000183,61.3999634,0.5999756c23,3.5,51.3000488,11.2000122,71.5999756,19.6000061
	c48.5,19.9000244,93.2000732,61.2999878,121.4000244,112.2999878c17.1999512,31,31.3000488,74.7000122,36.6999512,113.1000366
	c2.1000977,15.3999634,2.9000244,44.5,1.5,57.5999756c-12,112.2999878-65.3999023,208.4000244-151.5,273
	c-18.8999023,14.0999756-29.1999512,20.5999756-69.0999756,43.5c-37.4000244,21.5-52.7999268,29.0999756-95.499939,47.4000244
	c-55.3000488,23.5999756-72.000061,31.8000488-93.500061,46.0999756c-31,20.5-59.6999512,52-84,92
	c-11.6999512,19.4000244-15.5837402,23.9456787-15.5837402,23.9456787s-5.5162354-7.8457031-20.8162231-32.7456055
	c-12.7999878-20.7000732-36.6000366-49-54.1000366-64.3000488c-25.5999756-22.3000488-47.6999512-34.9000244-104.6999512-59.3000488
	c-62-26.5999756-66.8000488-28.8999023-109.9000244-53.6999512
	c-58.7000122-33.7000732-77.3999939-47.2000732-108.3999939-78.3000488
	c-32.1000061-32.0999756-52.3000183-60.3999634-72-100.5999756c-18.7000122-38.0999756-29.6000061-73.7000122-37.2000122-121.5
	c-3.1000061-20-3.2000122-54.7999878,0-75.0999756c8.5-55.5,28.7999878-105.5,59-145.7000122
	c24.1000061-32.1000366,58.8000183-60,93.8999939-75.6000061c20.5-9.1000061,51.6000061-17.8999939,76.4000244-21.7000122
	c19.2000122-2.8999939,45.7000122-3.1999817,61.3999634-0.5999756c44.7000122,7.3999939,64.7000122,13.5,85.8000488,26
	c20.2999878,12.1000061,32.6999512,24.2999573,49.5999756,48.9999695c9.7999878,14.2999878,10.9912109,17.2915649,13.5,16.1000366
	c14.5-4.2000122,36.5999756-40.2000122,36.5999756-59.4000244c0-9.3999939-10.0999756-25.8999939-24.5999756-40.3999939
	c-36-36.1000061-87.2999878-60.1000061-147.9000244-69.2000122
	C586.5152588,406.48349,554.2377319,404.0318298,536.21521,406.1835022z M540.6152344,590.0834961
	c-17.5,3.0999756-24.2000122,4.7999878-35.3999939,9.2000122c-51.8000183,20.3999634-85.3000183,59.0999756-98.3000183,113.7999878
	c-2.3999939,9.7999878-3.1947327,13.1552124-3.1947327,30.1552124c-0.1000061,16.8000488,0.7947388,19.8447876,2.8947449,27.8447876
	c5,19.1000366,14.7999878,40.2999878,27.1000061,58.7000122c8.1999817,12.2999878,14.1999817,19.2000122,30.1999817,35.5
	c8.2875061,8.3687134,11.793335,12.3016968,11.793335,12.3016968s-1.7183228-0.001709-2.0933228-0.001709
	c-1.2999878,0-6.7000122,0.5-11.8999939,1c-37,3.9000244-63.8999939,21-82.6000061,52.6000366
	c-2.5,4.1999512-4.3980713,8.3980103-4.3980713,8.3980103s3.6980591-1.2980347,7.0980835-3.0980225
	c23.3999939-11.7999878,50.5999756-18.9000244,72.5-18.9000244c18.8999939,0,34.7999878,4.4000244,66.3999634,18.2000122
	c64.2000122,28.2999878,109,54.2999878,170,98.7999878c18.7000122,13.6999512,22.6817017,15.9364014,22.6817017,15.9364014
	s-11.2816772-19.8364258-16.9816895-27.9364014c-13.7000122-19.5-29.2999878-36-72.0999756-76.5
	c-39.6000366-37.3999634-59.7000122-66.0999756-73.9000244-105.5c-13-36.0999756-12.8999634-72.2999878,0.4000244-106.5
	c18.0999756-46.7999878,60.2999878-80.7999878,100.3999634-80.9000244c10.6000366,0,15.8000488,0.9000244,32.4000244,5.5
	c5.7999878,1.5,11.1000366,2.895813,11.1000366,2.895813s-5.1000366-10.4957886-11.7000122-20.6958008
	c-17.4000244-26.5999756-43.8000488-43.5999756-78-50.2999878c-8.1000366-1.5999756-16.2576294-3.057251-36.9472656-3.050354
	C554.7310791,587.4643555,552.8152466,587.8834839,540.6152344,590.0834961z M1009.215271,588.1834717
	c-32.6000366,3.4000244-61.9000244,16.9000244-80.4000244,37c-16.3918457,17.5274048-24.1005859,36.401062-24.1005859,36.401062
	s5.4005737-1.3010254,11.1005859-2.901062c16.0999756-4.5999756,21.5999756-5.5,32.8999634-5.3999634
	c13.2000122,0.0999756,22.9000244,2.5999756,36.500061,9.2000122c35,17.1999512,61.3999634,52.7999878,70.7000122,95.3999634
	c3.1999512,14.9000244,3.1999512,44.6000366,0,59.6000366c-6.6000977,30.2000122-23.6000977,64.2999878-45.8000488,92.0999756
	c-7.7000122,9.5-29.8999634,32-60.0999756,60.7999878c-26.1000366,24.8000488-40.7000122,41.8000488-53.7000122,62.1000366
	c-5.6000366,8.6999512-9.4833374,18.0999756-9.4833374,18.0999756s3.583313-2.5,5.9833374-4.4000244
	c46.5999756-35.3999634,96.2000122-66.7999878,141.8999634-89.5999756c45.4000244-22.7000122,73.9000244-34.2000122,92.7000732-37.5
	c25.2999268-4.3999634,57.6999512,1.6000366,88.1999512,16.4000244c4.6999512,2.2000122,9.0986328,4.0900879,9.0986328,4.0900879
	s-1.0986328-2.9901123-2.5986328-5.6901245c-19.3000488-33.6999512-46.8000488-51.5-85.8000488-55.3999634
	c-6.0999756-0.6000366-11.592041-0.8774414-11.592041-0.8774414s5.1921387-6.4225464,11.7921143-13.2225952
	c16.5-16.8999634,21.1999512-22.5,29.6999512-35.2999878c12.5-18.7999878,23-42,27.0999756-60
	c3.3840332-12.117981,3.503418-37.4230347,0-52.5c-11-51.0999756-40.7999268-89.7000122-86-111.5
	c-24.1999512-11.5999756-50.4938965-17.5578003-74.4780273-17.5184937
	C1020.6939697,587.5256958,1011.4152222,587.9835205,1009.215271,588.1834717z M136.2152252,829.7835083
	c-8.8999939,2.2000122-22.2999954,7-27.1999969,9.7999878c-2.8000031,1.6000366-12,8.5-20.5,15.2999878
	c-8.4000015,6.7000122-19.5999985,15.3000488-24.8000031,18.9000244c-5.2999992,3.5999756-10.2999992,7.5-11.1999969,8.5
	c-0.6374969,0.6749878-1.7821388,1.7880859-1.7821388,1.7880859s2.1571274,1.3369141,5.2821388,3.2119141
	c2.7999992,1.5999756,11.0999985,6.5999756,18.1999969,11c38.3000031,23.5,61.6999969,31.7000122,82.9000092,29.2000122
	c13.3999939-1.7000122,20.8999939-7.1000366,40.2999878-29.4000244
	c5.8000031-6.5999756,13.3000031-14.5999756,16.6000061-17.7999878l6.1999969-5.7999878l-4.3999939-3.7000122
	c-2.5-2-10.5-9.2000122-17.8000031-15.9000244c-14.1000061-13-18.6999969-16.5-27-20.6999512
	C161.0152283,829.1835327,146.3152313,827.2835083,136.2152252,829.7835083z M1439.5152588,830.1835327
	c-11.9000244,2.7999878-20.5999756,8.3999634-36.5999756,23.5999756c-6.3000488,6-13.9000244,12.7999878-16.9000244,15
	c-3.6661377,3.0812378-6.2443848,6.0971069-6.2443848,6.0971069s1.9359131,2.0115967,3.5444336,3.3029175
	c1.3999023,1,8.5,8.5,15.7999268,16.7999878c16.2000732,18.5,24.5,26.2000122,31.0999756,29.2000122
	c13.3000488,6.0999756,33.1000977,4.5,54.5-4.3000488c11.3000488-4.5999756,21.7000732-10.1999512,44.7000732-24.0999756
	c11.1733398-6.7838135,19.8516846-11.7675781,19.8516846-11.7675781s-6.4813232-5.368042-15.0517578-11.4324341
	c-6-4.2999878-17.5-13.0999756-25.5-19.5c-16.6999512-13.3999634-25.5-18.0999756-40.6999512-21.8999634
	C1456.71521,828.2835083,1448.3153076,827.9835205,1439.5152588,830.1835327z"/>
<path class="st1" d="M796.2664185,87.8820038c10.9000244,11.5999985,43,55.5999908,69.2000122,95.0999908
	c44.7000122,67.2000122,60.5999756,119.1000061,48,156.7000122c-8.0999756,24.1000061-23.2000122,42.5-60.0999756,73.2999878
	c-11,9.3000183-23.2000122,20.2000122-27,24.2000122c-27.2000122,29.2999878-51.8000488,69-60.3000488,97.5999756
	c-5.3999634,18.2000122-6.5,26.1000366-6.5,44.7000122c0.1000366,15.1000366,0.4000244,18.1000366,2.7000122,27
	c3.4000244,12.9000244,13.5,33.1000366,22.4000244,45c8.8999634,11.9000244,28.5,31.5,40.2999878,40.2000122
	c11.2750244,8.3187866,19.1988525,12.4990234,19.1988525,12.4990234s-3.8613892-4.3552856-6.7988281-7.1990356
	c-11-10.7999878-26.6000366-32.5999756-32.9000244-46.2000122c-17.5999756-38.2999878-14.5999756-82.0999756,8.7000122-125.7999878
	c17.5-32.8999939,47.7000122-68,83-96.5c3.6739502-2.9476929,14.0823364-10.2207642,24.9331665-17.5855713
	c14.5487671-9.8747253,32.0206299-20.3864746,32.0206299-20.3864746s0.446167-0.5279541-5.7537842,22.8720703
	c-9.7000122,36.8999939-11.2000122,42.7999878-14.4000244,56.5999756
	c-8.2999878,36.1000061-10.5999756,55.2000122-9.7000122,82.4000244c0.9000244,26.2000122,4.5,46.8999634,12.9000244,72.5
	c18.7999878,57.7999878,56.2000122,113.2000122,115.8999634,171.5999756
	c11.4594727,11.1625366,18.6983643,17.1950684,18.6983643,17.1950684s-0.8640137-6.2325439-1.7983398-11.5950317
	c-2.1999512-12.7000122-9.3000488-30-17.8000488-43c-2-3.1000366-10.8999023-15.3000488-19.7999268-27.2000122
	c-8.9000244-11.9000244-18.3000488-25.6000366-21-30.4000244c-9.4000244-17.3999634-16.8000488-39-20.6000366-60.5
	c-2.8424683-13.8619385-2.4287109-40.3765869,0.5-53.3999634c5.6000366-27.7000122,21.5-61.4000244,48.500061-102.5000305
	c3.4840088-5.2997131,8.0517578-11.2014465,12.0841064-15.8381958c4.1850586-4.8121643,9.4101562-8.9460449,9.4101562-8.9460449
	s0.8056641,0.8842468,3.1057129,14.7842407c4.1999512,25.6000061,23.5999756,79.1000061,40.0999756,110.6000061
	c27.5,52.2999878,62.0999756,91.2999878,131,147.5999756c27.5,22.5,36,30.3000488,48.1999512,43.9000244
	c35.2000732,39.2000122,69,90.5999756,87,132.2999878c9.4000244,21.7000122,17.7000732,49.5,21,70.6000366
	c3.0957031,17.0327148,2.9047852,46.3005371,0,60.5c-4.7999268,25.6999512-15.6999512,51.2999268-33.1999512,77.4000244
	c-26.8000488,40.0999756-54.6999512,67.5999756-108.5,106.6999512c-41.5,30.0999756-71.4000244,48.8000488-126,78.8000488
	c-98.0999756,53.7999268-117.5999756,65.4000244-156.5,92.7999268c-36.0999756,25.5-103.9000244,79.7000732-126.5,101.2000732
	c-4.6656494,4.4361572-8.6617432,8.1702881-12.0579834,11.2587891
	c-9.9247437,9.0255127-15.3744507,12.8924561-15.3744507,12.8924561s-9.1765137-7.4553223-19.6897583-16.0001221
	c-2.951416-2.3988037-6.1117554-4.9769287-9.3778076-7.651123c-27.7999878-22.9000244-64.1000366-50.8000488-108-83
	c-13.7000122-10.0999756-28.1000366-20.7000732-32-23.5c-34.2999878-25.3000488-59.2000122-40.9000244-110.2000122-69.1000977
	c-36.7999878-20.3999023-63.2999878-35.5-107.2999878-61.3999023c-111.5-65.6000977-162.4000244-102.7000732-185.2000122-135
	c-28.6000061-40.5-39.3000031-85.6000977-30.8999939-130.4000244c5.3999939-28.6000366,17.0999908-67.2999878,28.5999908-94.6000366
	c7.1999969-17.2000122,22.0999908-47,31.3000031-62.5999756c25.5-43.7000122,46.3999939-72.5,112.7000122-155.4000244
	c56.1999817-70.2000122,73.7999878-93.8999634,94.7999878-127.5999756c14.5-23.2000122,32-56.1000061,40.2999878-75.7000122
	c1.6000366-3.7000122,3.9994507-7.5752563,3.9994507-7.5752563s0.4005737,6.8752441,0.8005371,14.0752563
	c1.7000122,32.2000122,7.7000122,57.4000244,20,83.2999878c20,42,55.6000366,79.1000366,107.6000366,111.7000122
	c34,21.2999878,69.2999878,38.0999756,134.7000122,64.2999878c13.3999634,5.2999878,25.3768311,10.8051147,25.3768311,10.8051147
	s-8.8768311,0.6948853-17.0768433,0.6948853c-49.5999756,0-105.2999878,13.2000122-149.5,35.2999878
	c-87.4000244,43.7000122-142.2000122,117.9000244-158.2000122,214.2000122c-1.3999939,8.5-1.7999878,16.3000488-1.7999878,34.500061
	c0.0999756,21.6999512,0.2999878,24.5,2.7999878,36.1999512c5.2999878,25,14.5,48.5999756,27.4000244,70.3000488
	c9.5,16.1999512,15.2999878,24,32.1999512,43.7999268c7.8000488,9.3000488,14.8347168,17.9176025,14.8347168,17.9176025
	s-12.6047363-3.4376221-23.9346924-9.317627c-9.5999756-4.7999268-23.0999756-13-35.6000061-21.5999756
	c-5.2999878-3.5999756-14-9.5-19.1999817-13.0999756c-102.6000061-70.1999512-147.7000122-157.2999878-128.9000244-248.7000122
	c8.9000244-42.8999634,29.8000183-85.2999878,62.1000061-125.7999878c7.6000061-9.5,14.1235657-18.0977783,14.1235657-18.0977783
	s-5.4959106,1.6818237-9.7276001,3.8439941c-4.203949,2.1480103-9.2094116,5.0629883-13.2959595,7.8537598
	c-15.3999939,10.5-47.7000122,37.1000366-59.7999878,49.2000122c-35.5,35.4000244-57.2000122,74.7000122-65.1000061,118
	c-2.6000061,14.1000366-2.6000061,49.7000122,0,64c5.1000061,28.1000366,13.5,52.000061,25.3999939,72.000061
	c5.8999939,10,19.3999939,27.3999023,29.2999878,37.8999023c27.5,29.1000977,63.1000061,53.7000732,122.9000244,85.1000977
	c10.6999817,5.5999756,29.1999817,15.2999268,41,21.5c11.7999878,6.1999512,28.8999634,15.3999023,38,20.5
	c9.0999756,5,43.5,23.5,76.5,41c72.5,38.5,86.8999634,47.1999512,147,89.5
	c16.9269409,11.9248047,27.6304321,19.4212646,34.3999634,24.0219727
	c8.3876953,5.7001953,10.3771973,7.4111328,10.3771973,7.4111328s5.453125-3.4691162,11.9432983-7.7132568
	c7.5848389-4.960083,18.4240112-12.105957,30.279541-19.9199219c22-14.5999756,55.5-36.6999512,74.5-49.2999268
	c54.5999756-36.1000977,67.7999878-43.9000244,148-87c103.6999512-55.8000488,161.5-90.1000977,189.5-112.6000977
	c17.9000244-14.2999268,37.4000244-35.1999512,48-51.3999023c9.5999756-14.7000732,20.4000244-38.7000732,26-58
	c3.9000244-13.7000122,5.5-25.500061,5.5-42.1000366c0-16.7000122-1.4000244-26.5999756-5.8000488-41.9000244
	c-9.5-32.3999634-27.0999756-60.3999634-56.6999512-90.0999756c-16.0999756-16.2000122-25.9000244-24.7000122-41.9000244-36.1000366
	c-4.3675537-3.0983276-10.1424561-6.9212646-15.7017822-10.4544678
	c-9.3334961-5.9317627-19.2961426-11.5615845-19.2961426-11.5615845s2.7587891,6.9766235,6.0535889,15.1616821
	c1.272583,3.161499,2.7119141,6.6764526,4.2443848,10.3543701c18.0999756,43.8000488,27.7999268,77.9000244,32.6999512,115.7000122
	c2.9968262,21.9616089,2.9968262,55.4788818,0.0999756,70c-4.1999512,26.7999878-11,48.2999878-23.1999512,73.1000366
	c-31.1999512,63.2999268-87.3000488,115.1999512-167.4000244,154.7999268
	c-59.1999512,29.3000488-114.5999756,45.4000244-176.0999756,51.2000732c-32.4509888,2.2568359-65.2679443,2.5750732-88-1
	c-32.5999756-4.7000732-74.7999878-16.7000732-106-30.0999756c-11.6000366-5-36.9000244-18.1000977-46-24
	c-30.2999878-19.4000244-52-42.2000732-64.6000366-68c-18.5-38-15.6999512-80.2000732,7.8000488-114.2000732
	c17.5-25.3999634,46.2999878-43.0999756,77.7999878-47.8999634c13.2000122-2,21-1.7999878,46.7000122,1.0999756
	c10.5820312,1.2304688,18.366272,1.9262085,23.8357544,3.0836792c5.6430054,1.1941528,10.4801025,4.0105591,10.4801025,4.0105591
	s-2.9158936,1.9057617-5.2158813,3.0057983c-4.5,2-24.5999756,18.1999512-33.4000244,26.9000244
	c-11,10.8999023-22.7999878,29.6999512-29,46.1999512c-19.2999878,51.3000488-4,108.6999512,36.6000366,137.1999512
	c24.4000244,17.1000977,59.7000122,28.6000977,99.4000244,32.2000732c15.3999634,1.5,53.6999512,0.5,67.0999756-1.5999756
	c15-2.3000488,38.5-8,56.7000122-13.6000977c52.5-16.1999512,93.1000366-39.0999756,123.2999878-69.3999023
	c20.3000488-20.3000488,35.8000488-44.5,45.9000244-71.7000732c19.5-52.4000244,14-119.0999756-14.5-178.6999512
	c-7.4000244-15.5-14.4000244-26-26.2000732-39.3000488c-5.0999756-5.6999512-12.6999512-14.3999634-16.8999023-19.2999878
	c-26.7000732-31.3999634-58.6000366-55-106.8000488-79.0999756c-24.2000122-12-41.0999756-19.2999878-96.4000244-41.7999878
	c-81.3999634-33.1000366-109.5-46.7000122-143.5999756-69.6000366c-54.2000122-36.2999878-87.9000244-83.3999634-100.2000122-140
	c-2-9.2000122-2.7178345-17.2651367-2.6939697-32.3049316c0.0239258-14.6817017,0.7939453-23.5950623,2.6939697-31.9950562
	c8.5-38.3999939,26.4000244-71.2000122,68.0999756-125.2000122c48.6000366-62.8999939,67.500061-90.6999969,84.500061-124.4999847
	c20.1999512-40.0000153,33.0999756-85.4000092,36.0999756-126.7000122
	c0.4000244-4.7999954,1.3540649-11.9152832,1.3540649-11.9152832S788.8664551,80.0820007,796.2664185,87.8820038z
	 M774.6003418,832.0828857c-9.4000244,1.4000244-33.9338989,7.9991455-44.6339111,11.4991455
	c-4.0999756,1.3999634-12.2000122,5-18,8c-29,15.0999756-52.6000366,38.5-72,71.3999634
	c-4.0877686,6.9545288-8.8237305,15.7409058-12.2479248,22.55896c-3.0258789,6.0248413-5.2587891,11.9928589-5.2587891,11.9928589
	s5.6066895-2.8518066,11.0067139-5.4517822c18.5999756-9,39.2000122-15.7000122,61.5-19.7999878
	c7.2999878-1.3000488,15-1.7000122,33.5-1.8000488c20.7000122,0,25.5999756,0.3000488,35.7000122,2.3000488
	c36.7999878,7,66.2000122,22.5,90.8999634,47.8999634c20.9000244,21.5,33,45.3000488,38.1000366,74.8000488
	c2.7999878,16.2999268,2.0999756,38.2999268-1.5,52.5999756c-4.7999878,18.5-12.4000244,33.0999756-23.6000366,45.2999268
	c-3.9874878,4.3312988-6.2512207,7.6584473-6.2512207,7.6584473s5.522522,0.6048584,16.152832-3.5291748
	c5.8129883-2.0852051,12.7189331-5.0360107,19.7984009-8.5291748c106.5-52.4000244,137.6000366-111.5,103.5-196.500061
	c-21.2999878-53.0999756-60.2999878-89.8999634-114.5999756-108c-18.9000244-6.2999878-34.2000122-9.5-59.7000122-12.5
	C815.4664307,830.5820312,784.4003296,830.4829102,774.6003418,832.0828857z"/>
<path class="st2" d="M898.4060669,151.0896606c52.5,7.3999939,109.9000244,24.5999908,167.500061,50.1999969
	c79,35.0999908,151.6999512,86.4000092,207.0999756,146.1999969c57.9000244,62.5,104.5,137.2000122,140.2999268,225.1999817
	c21.9000244,53.7000122,32.9000244,102.6000366,39.8000488,176.3000488c2.4047852,23.4138184,2.6594238,87.3926392-0.5,113.5
	c-4.0999756,42.0999756-17.5999756,106.1999512-30.6999512,145.5
	c-23.1000977,69.499939-57.9000244,133.2000122-109.8000488,200.7999878
	c-12.9000244,16.6999512-41.6999512,47.1999512-65.5999756,69.4000244
	c-88.0999756,81.7999268-188.0999756,135.5999756-299.8000488,161.1999512
	c-55.7999878,12.9000244-86.0252075,16.5841064-149.3251953,16.5841064c-41-0.0999756-51.1748047-1.0841064-82.4747925-4.5841064
	c-26.3999634-2.9000244-87.5-16.5-119.2999878-26.5999756c-62.5999756-19.6999512-120.8999939-60.1999512-172.8999939-120.4000244
	c-5.855957-5.855957-9.8583984-12.8031006-9.8583984-12.8031006s13.7583923,7.0031738,29.3583984,14.9030762
	c76.1999817,38.8000488,143.9999695,64,201.6999817,75c7.4000244,1.4000244,15.7999878,3,18.5,3.5
	c11.9000244,2.2000732,45,6.3000488,66,8c7.2000122,0.6000977,17.2999878,1.5,22.5,2
	c17.7000122,1.7000732,51.1000366,2.2000732,68.7000122,1.1000977c47.7000122-3.1000977,78.9000244-10.2000732,118.5-27
	c67-28.5,124-78.8000488,163.5-144.6000977c40.6999512-67.6999512,58.5999756-159.5,45.8000488-235.0999756
	c-10.5-62.2000122-36.1000977-120.0999756-74.2000732-167.8999634c-11.0999756-14-38.7999268-41.8000488-52-52.2000122
	c-58.2999878-46.1000366-120-70.2000122-200.7999878-78.4000244c-16.5999756-1.5999756-49.8999634-0.5999756-67.8999634,2.1000366
	c-16.5,2.5-21.1000366,3.5-47.1000366,10.5c-23.0999756,6.1999512-27.7999878,7.1999512-39.7999878,8.3999634
	c-10.5,1-22.5999756-0.0999756-31.5999756-3c-28.8000488-9.2000122-52.2000122-36.5999756-58.7000122-68.7999878
	c-2.2000122-11.2000122-1.5-30.4000244,1.5-40.9000244c7.5999756-26.1999512,25.0999756-45.2999878,53.0999756-58.0999756
	c15.9000244-7.0999756,55.7999878-19.4000244,78.7000122-24c64.0999756-13.1000061,138.7000122-11.7999878,197.7999878,3.4000244
	c14.2000122,3.6999512,44.6000366,13.6999512,62,20.5c58.2999878,22.7999878,112.8999634,58.8999634,156.500061,103.6999512
	c34.5999756,35.5,61.5,73.3000488,83.8999023,118c24.8000488,49.7000122,36.9000244,89,44.2000732,143.8000488
	c4.1386719,34.168457,4.4570312,74.3382568,2,96c-3.2000732,37.999939-8.7000732,66.8999634-18.5999756,96.999939
	c-17.8000488,54.1000977-43.9000244,103.5-76.8000488,146c-26,33.4000244-60.3000488,66.4000244-95.9000244,92.2000732
	c-8.9000244,6.5-63.5999756,38.4000244-74.5999756,43.5999756c-4.1253052,1.9501953-12.0634155,5.6523438-12.0634155,5.6523438
	s12.0264282-4.0524902,21.9634399-8.0523682c19.0999756-7.5999756,47.4000244-21.9000244,68.2999268-34.4000244
	c75-45.0999756,130.4000244-96.8999023,174.1000977-163c43.1999512-65.1999512,75.5999756-151.8999023,84.3999023-225.499939
	c5.2000732-42.8000488,5.9000244-94.6000366,2-130.5c-1.3999023-12.4000244-8.6999512-51.5-13.2999268-71.3000488
	c-15.7000732-66.5999756-48.5-134.5999756-92-190.6999512c-25.0999756-32.2000122-61.5999756-68.5000305-97.0999756-96.2000122
	c-33.8000488-26.4000244-75.3000488-52.7000122-105.4000244-66.7000122
	c-72.5-33.8999939-174.8000488-52.2000122-259.6000366-46.6000061c-33.7000122,2.2999878-62.7000122,7.5-98.5,17.8999939
	c-93,26.8999939-173.8999939,74.1000061-236,137.7000122c-16.6000061,17-25.5,27.5999756-42,49.9000244
	c-21.1000061,28.5-34.8999939,39.1999512-57.1000061,44.0999756c-9.0999756,2-26.7999878,2.2000122-36.8999939,0.5
	c-31.6000061-5.5-58.5-23.5999756-70.3999939-47.4000244c-7.5-14.7999878-9.4000092-30-6-47.6999817
	c5.5-29.2999878,20.3999939-55.2999878,63.2999878-110.2999878c22.2000122-28.5,33-41,52.4000244-60.6000061
	c33.5999756-33.8999939,65.8999939-60.1000061,104.6999817-84.8000031c67.3000183-43,155.2999878-80.1999969,220.5-93.1999969
	c27.9000244-5.6000061,67.9000244-11.9000092,82.5-13.1000061c8-0.6000061,19-1.5,24.5-1.8999939
	C795.8060913,142.3896484,855.1060791,144.9896545,898.4060669,151.0896606z M220.9060669,722.0896606
	c-22,4.5999756-33.5999908,10.5999756-47.5999908,24.4000244c-19.8000031,19.5999756-29.6000061,43.5-28.1000061,68.6999512
	c2.1999969,37.6000366,29.6000061,71.4000244,66.3999939,82c11.4000092,3.3000488,33.3000031,3.3000488,44.8000031,0
	c9.3000183-2.6999512,22.3000183-8.5999756,29.2000122-13.2999878c17.1000061-11.7000122,31.2999878-31.5,36.5-51.0999756
	c3.1000061-11.7000122,3.1000061-31.7999878-0.1000061-43.2999878
	c-8.2000122-30.3000488-32.2999878-56.1000366-61.1000061-65.3000488
	C246.4060669,719.4896851,235.9060669,718.9896851,220.9060669,722.0896606z M770.4060669,883.5896606
	c-34,3.0999756-71.7000122,16.2999878-99.2999878,34.7000122c-55.7999878,37.3999634-93.2999878,91.2999878-105.0999756,151.1999512
	c-7.3000488,37.3000488-4.5,82.6000977,7.5,119c6.5,19.6000977,17.0999756,41.9000244,26.5,55.8000488
	c30.3999634,45,73.2999878,77.4000244,125.8999634,95.1999512c34.5,11.8000488,82.5,14,120.6000366,5.6000977
	c52.6999512-11.5,104.5999756-46,139.1999512-92.5c2.7194214-3.6259766,5.6765137-7.9139404,8.1717529-11.744751
	c3.56073-5.4666748,6.1900635-11.032959,6.1900635-11.032959s-5.1785889,3.2282715-11.09729,8.2164307
	c-4.5944214,3.8719482-10.1580811,8.873291-15.6644897,14.1612549
	c-17.9000244,17.0999756-35.9000244,29.7999268-60.7999878,42.9000244
	c-43.9000244,22.8999023-86.8000488,29.6999512-132.5,20.7999268c-60.2000122-11.5999756-113.3000488-57.0999756-130.5-111.9000244
	c-6.4000244-20.0999756-8.5-50.5999756-5.1000366-71.6999512c3.7000122-23.0999756,14.7000122-43.4000244,33.2000122-61.5
	c10.5-10.3000488,32.2999878-26.5,42.5-31.5999756c12.2999878-6.2000732,31-10.5,45.2999878-10.4000244
	c22,0,44.2000122,7.3000488,57.2999878,18.8000488c11,9.5999756,17.2000122,21,26.7000122,48.3999023
	c10.4000244,30,18.1000366,43.8000488,31.7999878,56.6000977c14.7000122,13.6999512,32.5983887,21.1259766,53.4984131,21.026001
	c13.5999756,0,23.1016235-2.526001,34.3016357-8.1260986c10.6999512-5.3999023,16.5999756-10.0999756,23.8999634-19.3999023
	c12.6000366-15.9000244,20.7999878-33.4000244,23.9000244-50.8000488
	c2.3121948-11.7137451,1.6437378-26.0692139-0.4000244-39.8000488
	c-4.3999634-25.2999268-17.7000122-58.7999878-31.2999878-79.0999756
	c-30.5-45.2000122-90.0999756-82.7999878-143.2000122-90.3999634
	C813.3060913,881.8896484,795.5061035,881.2896729,770.4060669,883.5896606z M344.4060669,1036.989624
	c-12.5,1.5-23.7999878,6.4000244-32.7999878,14.1000977c-10.7000122,9.1999512-19.5,25.8999023-21.6000061,40.8999023
	c-4.8999939,35.6000977,25.7999878,69.9000244,62.8999939,70.4000244c16.8999939,0.2000732,31.5-5.9000244,44-18.4000244
	c8.7000122-8.5999756,13.1000061-16.1999512,16-27.5999756c6.3000183-24.4000244-1.8999939-51-20.3999939-66.2999268
	C380.4060669,1040.1896973,361.2060852,1034.8896484,344.4060669,1036.989624z"/>
<path class="st3" d="M807.3415527,118.965004c4,0,51.8999634,3,64.1999512,4
	c35.3000488,2.8999939,71.1000366,8.7000046,105,17.0999985c142.8000488,35.3000031,282,129.3999939,378.7000732,255.8999939
	c15.8999023,20.9000244,42.1999512,62.4000244,55.8999023,88.5c20.8000488,39.5000305,42.5,96.5000305,54.4000244,143.0000305
	c3.5096436,13.7461548,8.1826172,35.6698608,11.217041,51.7411499c2.1530762,11.4036865,3.3890381,21.1700439,3.3890381,21.1700439
	s-5.1646729-7.213501-11.0775146-17.1787109c-4.6175537-7.7822876-10.178833-17.4977417-15.5285645-27.2324829
	c-44.7999268-81.5-88.0999756-137.3000488-136-175.5000305c-9.7999268-7.7999878-29.4576416-20.4786987-29.4576416-20.4786987
	s3.2576904,13.278717,7.4576416,28.5787048c16.8000488,62,25.5,129.6000366,22.5999756,174.9000244
	c-3.3999023,53.0999756-9.5,85-23,121.7999878c-15.8999023,43.0999756-33.2999268,74.7999878-57.2999268,103.9000244
	c-8.7000732,10.5999756-30.9000244,32.5-41.3000488,41c-26.0999756,21-69.5,46-100.5,57.8999634
	c-5.7999268,2.2000122-11.5,4.5-12.6999512,5.1000366c-1.3000488,0.5999756-3.5396729,1.3396606-3.5396729,1.3396606
	s1.8395996-4.7396851,3.8395996-9.1397095c9.5-20.7999878,16.1000977-40.5,18.9000244-56.7999878
	c3-17.5,1.5-44.2000122-3-55.0999756c-21.2999268-51.2000122-74.0999756-85.5-131.5-85.5
	c-15.6999512,0-24.2999878,1.0999756-42.5,5.5c-72.3999634,17.3999634-122.6999512,59-153,126.3999634
	c-9.2999878,20.8000488-14.5,38.2000122-18.5999756,62.6000366c-3.2000122,18.7000122-3.2000122,48.6000366-0.0999756,66.999939
	c5.5,32,13.6999512,56.9000244,27.7999878,84.5c12.7999878,25.2000732,26.8999634,44.6000977,47.8999634,65.6000977
	c23.3000488,23.5,43.1000366,37.6999512,72,51.8999023c19.3000488,9.5,31.3000488,14.1000977,48.9000244,19
	c31.4000244,8.6000977,49.5,10.9000244,86.0999756,10.9000244c28.2000732,0,36.5-0.5999756,60-4.5
	c21.4000244-3.5,34.5-6.9000244,63-16.2999268c77-25.6000977,133.9000244-53.4000244,195-95.6000977
	c16-11,34.5158691-23.0078125,34.5158691-23.0078125s-1.5158691,3.6079102-10.8157959,18.3078613
	c-81.4000244,129.9000244-196.7000732,223.3000488-342.3000488,277.5
	c-48.5,18.0999756-73.4000244,24.4000244-137.9000244,35.1999512c0,0-25.8662109,4.711792-35.6711426,5.7401123
	c-15.5650024,1.4960938-37.0026245,1.9368896-37.0026245,1.9368896
	c-85.3000488,2.8000488-153.0261841-7.0769043-228.8262329-32.0769043
	c-11.0212402-3.6582031-22.2321167-7.6964111-30.4788208-10.8811035
	c-15.4934082-5.5384521-15.9469604-7.7109375-15.9469604-7.7109375s8.8896484,0.2923584,26.6896362,0.6922607
	c31.2000122,0.7000732,115.736145-2.1002197,134.236145-4.2003174c30.9000244-3.5999756,67.5-11.1999512,92-19
	c9.4000244-3,52.3739624-20.7133789,52.3739624-20.7133789s-8.5739136-2.1865234-18.973938-4.7866211
	c-50.2999878-12.5999756-115.5-38.2999268-157.9000244-62.5c-33.3999634-18.8999023-60.1999512-39-85.8999634-64.2999268
	c-26.1000366-25.5999756-45.5-51.2000732-62.9000244-82.7000732c-22.8999939-41.3999023-34.6000061-81.0999756-38.6999817-131
	c-1.6732788-19.4766846-0.7931213-49.9735107,1.4411621-72.4213257c1.1039124-11.0911865,4.5879211-27.1952515,4.5879211-27.1952515
	s2.1708984,4.8166504,4.9709167,10.6166382c3.7999878,7.7999878,6.7999878,12.2000122,13.7999573,20
	c24.3000488,27.2000122,39.9000244,38.0999756,64.000061,44.7000122c11.5999756,3.1999512,35.7999878,3.1999512,50.1999512,0
	c17.2000122-3.9000244,35.8000488-11.5,54.5-22.6000366c8.6000366-5,24.7000122-20.8999634,32.6000366-32.0999756
	c40.0999756-56.7999878,49.2000122-138.7000122,22.3999634-201.5c-24-56.2999878-76.5999756-109.2000122-129.2999878-130.4000244
	c-30.7999878-12.3999634-60.2999878-17.5999756-99.1999817-17.5999756c-33.6000061,0-61.3000183,4.0999756-88.5,13.2000122
	c-19.5,6.3999634-43.6000061,18.5-64.5,32.1999512C324.14151,680.6650391,293.64151,712.4650269,272.14151,747.9650269
	c-27.2999878,45.0999756-45,94.2000122-56.5999908,157.2999878c-3.1999969,17.7000122-5,33.2999878-7.5,65.4000244
	c-1.1000061,14.1999512-2.5,30.6999512-3,36.7999878c-2,22.7999878-0.6999969,82.2000122,2.5,111.2999878
	c0.8000031,7.4000244,1.9269867,15.9984131,1.9269867,15.9984131s-15.5269928-27.8984375-24.9269867-47.2984619
	c-21.3000031-43.5999756-38.6999969-95.7999268-51.1000061-153.3999634c-4.0999908-19-9.7999954-62.8999634-12.3999939-95.5
	c-3.7000046-46.5999756,1.3999939-112.7999878,13-169.0999756c25.5-123.9000244,62.3999939-202.7000122,141.8000031-303.0000305
	c29.2999878-36.8999939,61.1999817-68.1000061,101.1000061-98.8999939c4.1000061-3.1000061,8.381073-5.9208679,8.381073-5.9208679
	s-3.0810852,5.7208557-6.5810852,11.4208679c-8.8999939,14.5-45.8999939,78.6000061-54.7999878,94.8999939
	c-27.3000183,50.3000183-44.8000183,97.8000183-51.8000183,140.5c-2.6999817,16.3000183-4.3918457,36.5239563-4.3918457,36.5239563
	l-0.4655151,4.0583496l20.7573547-20.182312c17.8000183-17.9999695,27.5-26.7999878,48.9000244-44.7999878
	c52.8999939-44.3999939,98-70.3999939,155.6999817-89.5c43.1000061-14.3999939,76.1000061-19.3999939,119.8999939-18.2999878
	c51.7000122,1.2999878,98.1000366,13.1999817,145.5,37.2999878c23.4000244,11.8999939,51.5,30,68.5,44.1000061l7.241333,6.0374756
	l-12.741333,0.3625183c-22.2999878,1.1000061-49.3999634,8.5-70.7999878,19.3000183
	c-31.2999878,15.7999878-51,47.8999939-55.2000122,90.1000061c-2.5999756,26,2.5,53.2999878,15.2000122,80.5
	c20,43,66.4000244,82.5999756,118.2000122,100.5999756c31.7999878,11.1000366,64.4000244,14.7000122,98.4000244,10.9000244
	c67.5-7.5,124.7999268-40.6000366,165.9000244-95.7000122c28.5999756-38.2999878,49.5999756-90.9000244,53.2999268-133.5
	c1.5999756-17.5,0.8000488-57.3000183-1.4000244-72.3000183c-4.7999268-33-11.3999023-55-25-83.5
	c-41.7241211-86.8843994-122.0975342-161.4318848-244.2428589-226.4811249
	c-2.2712402-1.2095642-6.8571167-3.618866-6.8571167-3.618866s-37.2296143-19.4114075-46.2086792-23.4177551
	c-3.4902954-1.5842972-6.3112793-2.7500763-8.2250366-3.5338974c-1.6711426-0.6763916-11.6697998-4.5159149-11.6697998-4.5159149
	S806.0415039,118.965004,807.3415527,118.965004z"/>
</svg>
