<?xml version="1.0" encoding="utf-8"?>
<!-- Generator: Adobe Illustrator 25.3.1, SVG Export Plug-In . SVG Version: 6.00 Build 0)  -->
<svg version="1.1" id="图层_1" xmlns="http://www.w3.org/2000/svg" xmlns:xlink="http://www.w3.org/1999/xlink" x="0px" y="0px"
	 viewBox="0 0 1600 1600" style="enable-background:new 0 0 1600 1600;" xml:space="preserve">
<style type="text/css">
	.st0{display:none;fill:#90CC00;}
	.st1{display:none;fill:#FF6640;}
	.st2{display:none;fill:#00C0FF;}
	.st3{display:none;fill:#CC80FF;}
	.st4{display:none;fill:#FFAC00;}
	.st5{fill:#80FFFF;}
</style>
<path class="st0" d="M798.711853,86.5928345c0.5490723-0.6278229,1.0205688-1.169754,1.0205688-1.169754
	s0.3544312,0.4162674,0.9747925,1.1558304c1.9422607,2.3153305,6.9478149,9.405304,19.90802,28.5045853
	c7.4000244,11,18.5,27,24.5999756,35.5c26.3000488,36.5,39.8000488,58.1000061,50.1000366,79.6000061
	c23.7999878,49.7999878,25.7000122,92,5.7999878,130.3999939c-10.4000244,19.8999939-25,36.8999939-55.4000244,63.7999878
	c-21.6999512,19.3000183-32.5,29.7000122-40.0999756,38.4000244l-5.9000244,6.7999878l-3.1999512-3.7999878
	C789.8152466,457.98349,768.6152344,437.48349,753.71521,424.48349
	c-44.5999756-39.1999817-62.7999878-66.6000061-68.0999756-102.8999939c-1.7000122-12.2000122-0.5999756-33.7999878,2.5-47
	c8.2000122-35.1999969,23.7999878-64.6999969,63.2999878-120.1000061
	c7.7000122-10.6999969,20.1000366-28.5999985,27.7000122-39.6999969c7.5-11.1999969,15.0999756-22.3000031,16.7999878-24.6999969
	C796.9360962,88.6656494,797.9924927,87.4154129,798.711853,86.5928345z M1483.21521,364.2835083
	c-37.5,0.5999756-80.8999023,2.5-90.6999512,3.8999939c-45.2000732,6.2999878-75.0999756,29-86.2000732,65.6000061
	c-1.5999756,5.0999756-3.5,16.5-5.0999756,29.7999878c-2.7999268,23.2000122-4.7999268,35.3000183-7,44.1000061
	c-1.4562988,5.5826721-1.7069092,9.8072205-1.7069092,9.8072205s2.5410156,0.0927734,4.506958,0.0927734
	c5.5999756,0,28.6999512,3.4000244,43.9000244,6.5c23.0999756,4.7999878,44,5.0999756,60.0999756,1
	c19.6999512-5.0999756,37.5999756-18.1999817,50.5999756-37c12.2000732-17.7000122,18-31.3999939,35.5-83.8999939
	c4.647583-13.8617554,7.7108154-23.2321167,9.5528564-29.4311829c1.7355957-5.8406677,3.5125732-11.1966248,3.5125732-11.1966248
	l-2.1654053,0.2278137C1497.6152344,363.8834839,1490.9152832,364.0834961,1483.21521,364.2835083z M99.3517914,364.5612488
	c0,0,1.1857529,3.7727966,2.568573,8.0782471c6.7006531,20.8627625,26.562027,78.4836121,29.7948608,85.9440002
	c19.4000092,44.3999939,44.8000031,65.4000244,83.3000031,69c11.6999969,1.0999756,26.8000031-0.2000122,45.7999878-3.9000244
	c16.3000183-3.1999512,36.6000061-6.0999756,42.6000061-6.0999756c1.5750122,0,3.5174561,0.0186157,3.5174561,0.0186157
	s-0.1799316-1.6810913-0.5174561-3.8186035c-0.2999878-2-1.5-8-2.6000061-13.2000122
	c-1.0999756-5.1999817-3.3999939-20.5-5.0999756-34c-1.7000122-13.5-4-27.7000122-5.1000061-31.5
	c-11.5-38.7000122-42-61.5-90.4000092-67.3999939c-13.1338043-1.6035461-66.558075-3.2070923-91.0837555-3.1187744
	C104.5383759,364.5921021,99.3517914,364.5612488,99.3517914,364.5612488z M536.21521,406.1835022
	c-25.7999878,4-63.1999817,12.2999878-77.9999695,17.3999939c-41.8999939,14.5-82.1000061,37.6000061-118.5,68.1000061
	c-48.3000183,40.6000061-77,81.8000183-99.5000153,142.8999939c-11.1999969,30.5-14.6999969,45.2000122-21.5,88.7999878
	c-5.3000031,34.5-6.5,53.5-5.0999908,80.3000488c4.3999939,82,30.2999878,167.6999512,69.8999939,231.3999634
	c17,27.3000488,33.8999939,48.1999512,58.7999878,72.5c38.2000122,37.3000488,78.7000122,65.3999023,172.8999939,120.1999512
	c14.6257324,9.6809082,33.430481,18.4067383,46.3308105,24.3886719c12.6550293,5.605957,20.9858398,10.411377,21.7692261,10.411377
	c1,0,37.8999634,19.9000244,48.8999634,26.3000488c43.1000366,25.0999756,72.3000488,51.4000244,99.3000488,89.4000244
	c8.0999756,11.3999023,14.5999756,22.0999756,29,47.7999268c22.7999878,41,33.0999756,63.9000244,37.1999512,83.2000732
	c0,0,1.4104614,5.293335,2.0032959,5.293335s2.0025635-5.1682129,2.0025635-5.1682129
	c5.1090088-21.8991699,14.5459595-42.3710938,38.5941772-85.4251709c21.5999756-38.8000488,36.5-60.0999756,56.7999878-81.1999512
	c29.9000244-31,57.4000244-49,130.5999756-85.5c30.5439453-14.8571777,40.6922607-19.5223389,70.2883301-37.5341797
	c5.8937988-3.5183105,54.1617432-32.2158203,77.7116699-47.7658691c63.5999756-42,108.5-85.7000732,140-136.5
	c40-64.4000244,66.1000977-150.9000244,70-231.9000244c1.3000488-26.8999634,0-48.0999756-5-80.2999878
	c-6.5-42.5-10.2999268-58.2000122-20.9000244-86.9000244C1336.21521,572.0834961,1308.71521,532.6834717,1257.71521,489.98349
	c-29.7999268-24.8999939-66.1999512-46.6999817-101.5-60.6999817c-16.5-6.6000061-25.6999512-9.3000183-47.0999756-14.1000061
	c-40-8.8999939-45.3549805-9.6607056-68.7392578-9.6607056c-21.3000488,0-28.4607544,1.0606995-40.56073,2.9606934
	c-47.1000366,7.3000183-90.7000122,25.1000061-124.6000366,50.8999939c-9.6999512,7.5-29,26.9000244-33.8999634,34.2000122
	c-6.9000244,10.2000122-10.6000366,18.7000122-10.6000366,24.0999756c0,11.8000488,9.9000244,33.2000122,22.3000488,48.2000122
	c3.8999634,4.7000122,13,11.7000122,15.2999878,11.7000122c1.3283081-0.0927734,4-4.2000122,7.3999634-9.2999878
	c20.3000488-29.7000122,29.4000244-39.7999878,46-50.7999878c24.7000122-16.4000244,46.2000122-23.6000061,94.500061-31.6000061
	c15.5999146-2.5,42.0999146-2.3000183,61.3999634,0.5999756c23,3.5,51.3000488,11.2000122,71.5999756,19.6000061
	c48.5,19.9000244,93.2000732,61.2999878,121.4000244,112.2999878c17.1999512,31,31.3000488,74.7000122,36.6999512,113.1000366
	c2.1000977,15.3999634,2.9000244,44.5,1.5,57.5999756c-12,112.2999878-65.3999023,208.4000244-151.5,273
	c-18.8999023,14.0999756-29.1999512,20.5999756-69.0999756,43.5c-37.4000244,21.5-52.7999268,29.0999756-95.499939,47.4000244
	c-55.3000488,23.5999756-72.000061,31.8000488-93.500061,46.0999756c-31,20.5-59.6999512,52-84,92
	c-11.6999512,19.4000244-15.5837402,23.9456787-15.5837402,23.9456787s-5.5162354-7.8457031-20.8162231-32.7456055
	c-12.7999878-20.7000732-36.6000366-49-54.1000366-64.3000488c-25.5999756-22.3000488-47.6999512-34.9000244-104.6999512-59.3000488
	c-62-26.5999756-66.8000488-28.8999023-109.9000244-53.6999512
	c-58.7000122-33.7000732-77.3999939-47.2000732-108.3999939-78.3000488
	c-32.1000061-32.0999756-52.3000183-60.3999634-72-100.5999756c-18.7000122-38.0999756-29.6000061-73.7000122-37.2000122-121.5
	c-3.1000061-20-3.2000122-54.7999878,0-75.0999756c8.5-55.5,28.7999878-105.5,59-145.7000122
	c24.1000061-32.1000366,58.8000183-60,93.8999939-75.6000061c20.5-9.1000061,51.6000061-17.8999939,76.4000244-21.7000122
	c19.2000122-2.8999939,45.7000122-3.1999817,61.3999634-0.5999756c44.7000122,7.3999939,64.7000122,13.5,85.8000488,26
	c20.2999878,12.1000061,32.6999512,24.2999573,49.5999756,48.9999695c9.7999878,14.2999878,10.9912109,17.2915649,13.5,16.1000366
	c14.5-4.2000122,36.5999756-40.2000122,36.5999756-59.4000244c0-9.3999939-10.0999756-25.8999939-24.5999756-40.3999939
	c-36-36.1000061-87.2999878-60.1000061-147.9000244-69.2000122
	C586.5152588,406.48349,554.2377319,404.0318298,536.21521,406.1835022z M540.6152344,590.0834961
	c-17.5,3.0999756-24.2000122,4.7999878-35.3999939,9.2000122c-51.8000183,20.3999634-85.3000183,59.0999756-98.3000183,113.7999878
	c-2.3999939,9.7999878-3.1947327,13.1552124-3.1947327,30.1552124c-0.1000061,16.8000488,0.7947388,19.8447876,2.8947449,27.8447876
	c5,19.1000366,14.7999878,40.2999878,27.1000061,58.7000122c8.1999817,12.2999878,14.1999817,19.2000122,30.1999817,35.5
	c8.2875061,8.3687134,11.793335,12.3016968,11.793335,12.3016968s-1.7183228-0.001709-2.0933228-0.001709
	c-1.2999878,0-6.7000122,0.5-11.8999939,1c-37,3.9000244-63.8999939,21-82.6000061,52.6000366
	c-2.5,4.1999512-4.3980713,8.3980103-4.3980713,8.3980103s3.6980591-1.2980347,7.0980835-3.0980225
	c23.3999939-11.7999878,50.5999756-18.9000244,72.5-18.9000244c18.8999939,0,34.7999878,4.4000244,66.3999634,18.2000122
	c64.2000122,28.2999878,109,54.2999878,170,98.7999878c18.7000122,13.6999512,22.6817017,15.9364014,22.6817017,15.9364014
	s-11.2816772-19.8364258-16.9816895-27.9364014c-13.7000122-19.5-29.2999878-36-72.0999756-76.5
	c-39.6000366-37.3999634-59.7000122-66.0999756-73.9000244-105.5c-13-36.0999756-12.8999634-72.2999878,0.4000244-106.5
	c18.0999756-46.7999878,60.2999878-80.7999878,100.3999634-80.9000244c10.6000366,0,15.8000488,0.9000244,32.4000244,5.5
	c5.7999878,1.5,11.1000366,2.895813,11.1000366,2.895813s-5.1000366-10.4957886-11.7000122-20.6958008
	c-17.4000244-26.5999756-43.8000488-43.5999756-78-50.2999878c-8.1000366-1.5999756-16.2576294-3.057251-36.9472656-3.050354
	C554.7310791,587.4643555,552.8152466,587.8834839,540.6152344,590.0834961z M1009.215271,588.1834717
	c-32.6000366,3.4000244-61.9000244,16.9000244-80.4000244,37c-16.3918457,17.5274048-24.1005859,36.401062-24.1005859,36.401062
	s5.4005737-1.3010254,11.1005859-2.901062c16.0999756-4.5999756,21.5999756-5.5,32.8999634-5.3999634
	c13.2000122,0.0999756,22.9000244,2.5999756,36.500061,9.2000122c35,17.1999512,61.3999634,52.7999878,70.7000122,95.3999634
	c3.1999512,14.9000244,3.1999512,44.6000366,0,59.6000366c-6.6000977,30.2000122-23.6000977,64.2999878-45.8000488,92.0999756
	c-7.7000122,9.5-29.8999634,32-60.0999756,60.7999878c-26.1000366,24.8000488-40.7000122,41.8000488-53.7000122,62.1000366
	c-5.6000366,8.6999512-9.4833374,18.0999756-9.4833374,18.0999756s3.583313-2.5,5.9833374-4.4000244
	c46.5999756-35.3999634,96.2000122-66.7999878,141.8999634-89.5999756c45.4000244-22.7000122,73.9000244-34.2000122,92.7000732-37.5
	c25.2999268-4.3999634,57.6999512,1.6000366,88.1999512,16.4000244c4.6999512,2.2000122,9.0986328,4.0900879,9.0986328,4.0900879
	s-1.0986328-2.9901123-2.5986328-5.6901245c-19.3000488-33.6999512-46.8000488-51.5-85.8000488-55.3999634
	c-6.0999756-0.6000366-11.592041-0.8774414-11.592041-0.8774414s5.1921387-6.4225464,11.7921143-13.2225952
	c16.5-16.8999634,21.1999512-22.5,29.6999512-35.2999878c12.5-18.7999878,23-42,27.0999756-60
	c3.3840332-12.117981,3.503418-37.4230347,0-52.5c-11-51.0999756-40.7999268-89.7000122-86-111.5
	c-24.1999512-11.5999756-50.4938965-17.5578003-74.4780273-17.5184937
	C1020.6939697,587.5256958,1011.4152222,587.9835205,1009.215271,588.1834717z M136.2152252,829.7835083
	c-8.8999939,2.2000122-22.2999954,7-27.1999969,9.7999878c-2.8000031,1.6000366-12,8.5-20.5,15.2999878
	c-8.4000015,6.7000122-19.5999985,15.3000488-24.8000031,18.9000244c-5.2999992,3.5999756-10.2999992,7.5-11.1999969,8.5
	c-0.6374969,0.6749878-1.7821388,1.7880859-1.7821388,1.7880859s2.1571274,1.3369141,5.2821388,3.2119141
	c2.7999992,1.5999756,11.0999985,6.5999756,18.1999969,11c38.3000031,23.5,61.6999969,31.7000122,82.9000092,29.2000122
	c13.3999939-1.7000122,20.8999939-7.1000366,40.2999878-29.4000244
	c5.8000031-6.5999756,13.3000031-14.5999756,16.6000061-17.7999878l6.1999969-5.7999878l-4.3999939-3.7000122
	c-2.5-2-10.5-9.2000122-17.8000031-15.9000244c-14.1000061-13-18.6999969-16.5-27-20.6999512
	C161.0152283,829.1835327,146.3152313,827.2835083,136.2152252,829.7835083z M1439.5152588,830.1835327
	c-11.9000244,2.7999878-20.5999756,8.3999634-36.5999756,23.5999756c-6.3000488,6-13.9000244,12.7999878-16.9000244,15
	c-3.6661377,3.0812378-6.2443848,6.0971069-6.2443848,6.0971069s1.9359131,2.0115967,3.5444336,3.3029175
	c1.3999023,1,8.5,8.5,15.7999268,16.7999878c16.2000732,18.5,24.5,26.2000122,31.0999756,29.2000122
	c13.3000488,6.0999756,33.1000977,4.5,54.5-4.3000488c11.3000488-4.5999756,21.7000732-10.1999512,44.7000732-24.0999756
	c11.1733398-6.7838135,19.8516846-11.7675781,19.8516846-11.7675781s-6.4813232-5.368042-15.0517578-11.4324341
	c-6-4.2999878-17.5-13.0999756-25.5-19.5c-16.6999512-13.3999634-25.5-18.0999756-40.6999512-21.8999634
	C1456.71521,828.2835083,1448.3153076,827.9835205,1439.5152588,830.1835327z"/>
<path class="st1" d="M796.2664185,87.8820038c10.9000244,11.5999985,43,55.5999908,69.2000122,95.0999908
	c44.7000122,67.2000122,60.5999756,119.1000061,48,156.7000122c-8.0999756,24.1000061-23.2000122,42.5-60.0999756,73.2999878
	c-11,9.3000183-23.2000122,20.2000122-27,24.2000122c-27.2000122,29.2999878-51.8000488,69-60.3000488,97.5999756
	c-5.3999634,18.2000122-6.5,26.1000366-6.5,44.7000122c0.1000366,15.1000366,0.4000244,18.1000366,2.7000122,27
	c3.4000244,12.9000244,13.5,33.1000366,22.4000244,45c8.8999634,11.9000244,28.5,31.5,40.2999878,40.2000122
	c11.2750244,8.3187866,19.1988525,12.4990234,19.1988525,12.4990234s-3.8613892-4.3552856-6.7988281-7.1990356
	c-11-10.7999878-26.6000366-32.5999756-32.9000244-46.2000122c-17.5999756-38.2999878-14.5999756-82.0999756,8.7000122-125.7999878
	c17.5-32.8999939,47.7000122-68,83-96.5c3.6739502-2.9476929,14.0823364-10.2207642,24.9331665-17.5855713
	c14.5487671-9.8747253,32.0206299-20.3864746,32.0206299-20.3864746s0.446167-0.5279541-5.7537842,22.8720703
	c-9.7000122,36.8999939-11.2000122,42.7999878-14.4000244,56.5999756
	c-8.2999878,36.1000061-10.5999756,55.2000122-9.7000122,82.4000244c0.9000244,26.2000122,4.5,46.8999634,12.9000244,72.5
	c18.7999878,57.7999878,56.2000122,113.2000122,115.8999634,171.5999756
	c11.4594727,11.1625366,18.6983643,17.1950684,18.6983643,17.1950684s-0.8640137-6.2325439-1.7983398-11.5950317
	c-2.1999512-12.7000122-9.3000488-30-17.8000488-43c-2-3.1000366-10.8999023-15.3000488-19.7999268-27.2000122
	c-8.9000244-11.9000244-18.3000488-25.6000366-21-30.4000244c-9.4000244-17.3999634-16.8000488-39-20.6000366-60.5
	c-2.8424683-13.8619385-2.4287109-40.3765869,0.5-53.3999634c5.6000366-27.7000122,21.5-61.4000244,48.500061-102.5000305
	c3.4840088-5.2997131,8.0517578-11.2014465,12.0841064-15.8381958c4.1850586-4.8121643,9.4101562-8.9460449,9.4101562-8.9460449
	s0.8056641,0.8842468,3.1057129,14.7842407c4.1999512,25.6000061,23.5999756,79.1000061,40.0999756,110.6000061
	c27.5,52.2999878,62.0999756,91.2999878,131,147.5999756c27.5,22.5,36,30.3000488,48.1999512,43.9000244
	c35.2000732,39.2000122,69,90.5999756,87,132.2999878c9.4000244,21.7000122,17.7000732,49.5,21,70.6000366
	c3.0957031,17.0327148,2.9047852,46.3005371,0,60.5c-4.7999268,25.6999512-15.6999512,51.2999268-33.1999512,77.4000244
	c-26.8000488,40.0999756-54.6999512,67.5999756-108.5,106.6999512c-41.5,30.0999756-71.4000244,48.8000488-126,78.8000488
	c-98.0999756,53.7999268-117.5999756,65.4000244-156.5,92.7999268c-36.0999756,25.5-103.9000244,79.7000732-126.5,101.2000732
	c-4.6656494,4.4361572-8.6617432,8.1702881-12.0579834,11.2587891
	c-9.9247437,9.0255127-15.3744507,12.8924561-15.3744507,12.8924561s-9.1765137-7.4553223-19.6897583-16.0001221
	c-2.951416-2.3988037-6.1117554-4.9769287-9.3778076-7.651123c-27.7999878-22.9000244-64.1000366-50.8000488-108-83
	c-13.7000122-10.0999756-28.1000366-20.7000732-32-23.5c-34.2999878-25.3000488-59.2000122-40.9000244-110.2000122-69.1000977
	c-36.7999878-20.3999023-63.2999878-35.5-107.2999878-61.3999023c-111.5-65.6000977-162.4000244-102.7000732-185.2000122-135
	c-28.6000061-40.5-39.3000031-85.6000977-30.8999939-130.4000244c5.3999939-28.6000366,17.0999908-67.2999878,28.5999908-94.6000366
	c7.1999969-17.2000122,22.0999908-47,31.3000031-62.5999756c25.5-43.7000122,46.3999939-72.5,112.7000122-155.4000244
	c56.1999817-70.2000122,73.7999878-93.8999634,94.7999878-127.5999756c14.5-23.2000122,32-56.1000061,40.2999878-75.7000122
	c1.6000366-3.7000122,3.9994507-7.5752563,3.9994507-7.5752563s0.4005737,6.8752441,0.8005371,14.0752563
	c1.7000122,32.2000122,7.7000122,57.4000244,20,83.2999878c20,42,55.6000366,79.1000366,107.6000366,111.7000122
	c34,21.2999878,69.2999878,38.0999756,134.7000122,64.2999878c13.3999634,5.2999878,25.3768311,10.8051147,25.3768311,10.8051147
	s-8.8768311,0.6948853-17.0768433,0.6948853c-49.5999756,0-105.2999878,13.2000122-149.5,35.2999878
	c-87.4000244,43.7000122-142.2000122,117.9000244-158.2000122,214.2000122c-1.3999939,8.5-1.7999878,16.3000488-1.7999878,34.500061
	c0.0999756,21.6999512,0.2999878,24.5,2.7999878,36.1999512c5.2999878,25,14.5,48.5999756,27.4000244,70.3000488
	c9.5,16.1999512,15.2999878,24,32.1999512,43.7999268c7.8000488,9.3000488,14.8347168,17.9176025,14.8347168,17.9176025
	s-12.6047363-3.4376221-23.9346924-9.317627c-9.5999756-4.7999268-23.0999756-13-35.6000061-21.5999756
	c-5.2999878-3.5999756-14-9.5-19.1999817-13.0999756c-102.6000061-70.1999512-147.7000122-157.2999878-128.9000244-248.7000122
	c8.9000244-42.8999634,29.8000183-85.2999878,62.1000061-125.7999878c7.6000061-9.5,14.1235657-18.0977783,14.1235657-18.0977783
	s-5.4959106,1.6818237-9.7276001,3.8439941c-4.203949,2.1480103-9.2094116,5.0629883-13.2959595,7.8537598
	c-15.3999939,10.5-47.7000122,37.1000366-59.7999878,49.2000122c-35.5,35.4000244-57.2000122,74.7000122-65.1000061,118
	c-2.6000061,14.1000366-2.6000061,49.7000122,0,64c5.1000061,28.1000366,13.5,52.000061,25.3999939,72.000061
	c5.8999939,10,19.3999939,27.3999023,29.2999878,37.8999023c27.5,29.1000977,63.1000061,53.7000732,122.9000244,85.1000977
	c10.6999817,5.5999756,29.1999817,15.2999268,41,21.5c11.7999878,6.1999512,28.8999634,15.3999023,38,20.5
	c9.0999756,5,43.5,23.5,76.5,41c72.5,38.5,86.8999634,47.1999512,147,89.5
	c16.9269409,11.9248047,27.6304321,19.4212646,34.3999634,24.0219727
	c8.3876953,5.7001953,10.3771973,7.4111328,10.3771973,7.4111328s5.453125-3.4691162,11.9432983-7.7132568
	c7.5848389-4.960083,18.4240112-12.105957,30.279541-19.9199219c22-14.5999756,55.5-36.6999512,74.5-49.2999268
	c54.5999756-36.1000977,67.7999878-43.9000244,148-87c103.6999512-55.8000488,161.5-90.1000977,189.5-112.6000977
	c17.9000244-14.2999268,37.4000244-35.1999512,48-51.3999023c9.5999756-14.7000732,20.4000244-38.7000732,26-58
	c3.9000244-13.7000122,5.5-25.500061,5.5-42.1000366c0-16.7000122-1.4000244-26.5999756-5.8000488-41.9000244
	c-9.5-32.3999634-27.0999756-60.3999634-56.6999512-90.0999756c-16.0999756-16.2000122-25.9000244-24.7000122-41.9000244-36.1000366
	c-4.3675537-3.0983276-10.1424561-6.9212646-15.7017822-10.4544678
	c-9.3334961-5.9317627-19.2961426-11.5615845-19.2961426-11.5615845s2.7587891,6.9766235,6.0535889,15.1616821
	c1.272583,3.161499,2.7119141,6.6764526,4.2443848,10.3543701c18.0999756,43.8000488,27.7999268,77.9000244,32.6999512,115.7000122
	c2.9968262,21.9616089,2.9968262,55.4788818,0.0999756,70c-4.1999512,26.7999878-11,48.2999878-23.1999512,73.1000366
	c-31.1999512,63.2999268-87.3000488,115.1999512-167.4000244,154.7999268
	c-59.1999512,29.3000488-114.5999756,45.4000244-176.0999756,51.2000732c-32.4509888,2.2568359-65.2679443,2.5750732-88-1
	c-32.5999756-4.7000732-74.7999878-16.7000732-106-30.0999756c-11.6000366-5-36.9000244-18.1000977-46-24
	c-30.2999878-19.4000244-52-42.2000732-64.6000366-68c-18.5-38-15.6999512-80.2000732,7.8000488-114.2000732
	c17.5-25.3999634,46.2999878-43.0999756,77.7999878-47.8999634c13.2000122-2,21-1.7999878,46.7000122,1.0999756
	c10.5820312,1.2304688,18.366272,1.9262085,23.8357544,3.0836792c5.6430054,1.1941528,10.4801025,4.0105591,10.4801025,4.0105591
	s-2.9158936,1.9057617-5.2158813,3.0057983c-4.5,2-24.5999756,18.1999512-33.4000244,26.9000244
	c-11,10.8999023-22.7999878,29.6999512-29,46.1999512c-19.2999878,51.3000488-4,108.6999512,36.6000366,137.1999512
	c24.4000244,17.1000977,59.7000122,28.6000977,99.4000244,32.2000732c15.3999634,1.5,53.6999512,0.5,67.0999756-1.5999756
	c15-2.3000488,38.5-8,56.7000122-13.6000977c52.5-16.1999512,93.1000366-39.0999756,123.2999878-69.3999023
	c20.3000488-20.3000488,35.8000488-44.5,45.9000244-71.7000732c19.5-52.4000244,14-119.0999756-14.5-178.6999512
	c-7.4000244-15.5-14.4000244-26-26.2000732-39.3000488c-5.0999756-5.6999512-12.6999512-14.3999634-16.8999023-19.2999878
	c-26.7000732-31.3999634-58.6000366-55-106.8000488-79.0999756c-24.2000122-12-41.0999756-19.2999878-96.4000244-41.7999878
	c-81.3999634-33.1000366-109.5-46.7000122-143.5999756-69.6000366c-54.2000122-36.2999878-87.9000244-83.3999634-100.2000122-140
	c-2-9.2000122-2.7178345-17.2651367-2.6939697-32.3049316c0.0239258-14.6817017,0.7939453-23.5950623,2.6939697-31.9950562
	c8.5-38.3999939,26.4000244-71.2000122,68.0999756-125.2000122c48.6000366-62.8999939,67.500061-90.6999969,84.500061-124.4999847
	c20.1999512-40.0000153,33.0999756-85.4000092,36.0999756-126.7000122
	c0.4000244-4.7999954,1.3540649-11.9152832,1.3540649-11.9152832S788.8664551,80.0820007,796.2664185,87.8820038z
	 M774.6003418,832.0828857c-9.4000244,1.4000244-33.9338989,7.9991455-44.6339111,11.4991455
	c-4.0999756,1.3999634-12.2000122,5-18,8c-29,15.0999756-52.6000366,38.5-72,71.3999634
	c-4.0877686,6.9545288-8.8237305,15.7409058-12.2479248,22.55896c-3.0258789,6.0248413-5.2587891,11.9928589-5.2587891,11.9928589
	s5.6066895-2.8518066,11.0067139-5.4517822c18.5999756-9,39.2000122-15.7000122,61.5-19.7999878
	c7.2999878-1.3000488,15-1.7000122,33.5-1.8000488c20.7000122,0,25.5999756,0.3000488,35.7000122,2.3000488
	c36.7999878,7,66.2000122,22.5,90.8999634,47.8999634c20.9000244,21.5,33,45.3000488,38.1000366,74.8000488
	c2.7999878,16.2999268,2.0999756,38.2999268-1.5,52.5999756c-4.7999878,18.5-12.4000244,33.0999756-23.6000366,45.2999268
	c-3.9874878,4.3312988-6.2512207,7.6584473-6.2512207,7.6584473s5.522522,0.6048584,16.152832-3.5291748
	c5.8129883-2.0852051,12.7189331-5.0360107,19.7984009-8.5291748c106.5-52.4000244,137.6000366-111.5,103.5-196.500061
	c-21.2999878-53.0999756-60.2999878-89.8999634-114.5999756-108c-18.9000244-6.2999878-34.2000122-9.5-59.7000122-12.5
	C815.4664307,830.5820312,784.4003296,830.4829102,774.6003418,832.0828857z"/>
<path class="st2" d="M898.4060669,151.0896606c52.5,7.3999939,109.9000244,24.5999908,167.500061,50.1999969
	c79,35.0999908,151.6999512,86.4000092,207.0999756,146.1999969c57.9000244,62.5,104.5,137.2000122,140.2999268,225.1999817
	c21.9000244,53.7000122,32.9000244,102.6000366,39.8000488,176.3000488c2.4047852,23.4138184,2.6594238,87.3926392-0.5,113.5
	c-4.0999756,42.0999756-17.5999756,106.1999512-30.6999512,145.5
	c-23.1000977,69.499939-57.9000244,133.2000122-109.8000488,200.7999878
	c-12.9000244,16.6999512-41.6999512,47.1999512-65.5999756,69.4000244
	c-88.0999756,81.7999268-188.0999756,135.5999756-299.8000488,161.1999512
	c-55.7999878,12.9000244-86.0252075,16.5841064-149.3251953,16.5841064c-41-0.0999756-51.1748047-1.0841064-82.4747925-4.5841064
	c-26.3999634-2.9000244-87.5-16.5-119.2999878-26.5999756c-62.5999756-19.6999512-120.8999939-60.1999512-172.8999939-120.4000244
	c-5.855957-5.855957-9.8583984-12.8031006-9.8583984-12.8031006s13.7583923,7.0031738,29.3583984,14.9030762
	c76.1999817,38.8000488,143.9999695,64,201.6999817,75c7.4000244,1.4000244,15.7999878,3,18.5,3.5
	c11.9000244,2.2000732,45,6.3000488,66,8c7.2000122,0.6000977,17.2999878,1.5,22.5,2
	c17.7000122,1.7000732,51.1000366,2.2000732,68.7000122,1.1000977c47.7000122-3.1000977,78.9000244-10.2000732,118.5-27
	c67-28.5,124-78.8000488,163.5-144.6000977c40.6999512-67.6999512,58.5999756-159.5,45.8000488-235.0999756
	c-10.5-62.2000122-36.1000977-120.0999756-74.2000732-167.8999634c-11.0999756-14-38.7999268-41.8000488-52-52.2000122
	c-58.2999878-46.1000366-120-70.2000122-200.7999878-78.4000244c-16.5999756-1.5999756-49.8999634-0.5999756-67.8999634,2.1000366
	c-16.5,2.5-21.1000366,3.5-47.1000366,10.5c-23.0999756,6.1999512-27.7999878,7.1999512-39.7999878,8.3999634
	c-10.5,1-22.5999756-0.0999756-31.5999756-3c-28.8000488-9.2000122-52.2000122-36.5999756-58.7000122-68.7999878
	c-2.2000122-11.2000122-1.5-30.4000244,1.5-40.9000244c7.5999756-26.1999512,25.0999756-45.2999878,53.0999756-58.0999756
	c15.9000244-7.0999756,55.7999878-19.4000244,78.7000122-24c64.0999756-13.1000061,138.7000122-11.7999878,197.7999878,3.4000244
	c14.2000122,3.6999512,44.6000366,13.6999512,62,20.5c58.2999878,22.7999878,112.8999634,58.8999634,156.500061,103.6999512
	c34.5999756,35.5,61.5,73.3000488,83.8999023,118c24.8000488,49.7000122,36.9000244,89,44.2000732,143.8000488
	c4.1386719,34.168457,4.4570312,74.3382568,2,96c-3.2000732,37.999939-8.7000732,66.8999634-18.5999756,96.999939
	c-17.8000488,54.1000977-43.9000244,103.5-76.8000488,146c-26,33.4000244-60.3000488,66.4000244-95.9000244,92.2000732
	c-8.9000244,6.5-63.5999756,38.4000244-74.5999756,43.5999756c-4.1253052,1.9501953-12.0634155,5.6523438-12.0634155,5.6523438
	s12.0264282-4.0524902,21.9634399-8.0523682c19.0999756-7.5999756,47.4000244-21.9000244,68.2999268-34.4000244
	c75-45.0999756,130.4000244-96.8999023,174.1000977-163c43.1999512-65.1999512,75.5999756-151.8999023,84.3999023-225.499939
	c5.2000732-42.8000488,5.9000244-94.6000366,2-130.5c-1.3999023-12.4000244-8.6999512-51.5-13.2999268-71.3000488
	c-15.7000732-66.5999756-48.5-134.5999756-92-190.6999512c-25.0999756-32.2000122-61.5999756-68.5000305-97.0999756-96.2000122
	c-33.8000488-26.4000244-75.3000488-52.7000122-105.4000244-66.7000122
	c-72.5-33.8999939-174.8000488-52.2000122-259.6000366-46.6000061c-33.7000122,2.2999878-62.7000122,7.5-98.5,17.8999939
	c-93,26.8999939-173.8999939,74.1000061-236,137.7000122c-16.6000061,17-25.5,27.5999756-42,49.9000244
	c-21.1000061,28.5-34.8999939,39.1999512-57.1000061,44.0999756c-9.0999756,2-26.7999878,2.2000122-36.8999939,0.5
	c-31.6000061-5.5-58.5-23.5999756-70.3999939-47.4000244c-7.5-14.7999878-9.4000092-30-6-47.6999817
	c5.5-29.2999878,20.3999939-55.2999878,63.2999878-110.2999878c22.2000122-28.5,33-41,52.4000244-60.6000061
	c33.5999756-33.8999939,65.8999939-60.1000061,104.6999817-84.8000031c67.3000183-43,155.2999878-80.1999969,220.5-93.1999969
	c27.9000244-5.6000061,67.9000244-11.9000092,82.5-13.1000061c8-0.6000061,19-1.5,24.5-1.8999939
	C795.8060913,142.3896484,855.1060791,144.9896545,898.4060669,151.0896606z M220.9060669,722.0896606
	c-22,4.5999756-33.5999908,10.5999756-47.5999908,24.4000244c-19.8000031,19.5999756-29.6000061,43.5-28.1000061,68.6999512
	c2.1999969,37.6000366,29.6000061,71.4000244,66.3999939,82c11.4000092,3.3000488,33.3000031,3.3000488,44.8000031,0
	c9.3000183-2.6999512,22.3000183-8.5999756,29.2000122-13.2999878c17.1000061-11.7000122,31.2999878-31.5,36.5-51.0999756
	c3.1000061-11.7000122,3.1000061-31.7999878-0.1000061-43.2999878
	c-8.2000122-30.3000488-32.2999878-56.1000366-61.1000061-65.3000488
	C246.4060669,719.4896851,235.9060669,718.9896851,220.9060669,722.0896606z M770.4060669,883.5896606
	c-34,3.0999756-71.7000122,16.2999878-99.2999878,34.7000122c-55.7999878,37.3999634-93.2999878,91.2999878-105.0999756,151.1999512
	c-7.3000488,37.3000488-4.5,82.6000977,7.5,119c6.5,19.6000977,17.0999756,41.9000244,26.5,55.8000488
	c30.3999634,45,73.2999878,77.4000244,125.8999634,95.1999512c34.5,11.8000488,82.5,14,120.6000366,5.6000977
	c52.6999512-11.5,104.5999756-46,139.1999512-92.5c2.7194214-3.6259766,5.6765137-7.9139404,8.1717529-11.744751
	c3.56073-5.4666748,6.1900635-11.032959,6.1900635-11.032959s-5.1785889,3.2282715-11.09729,8.2164307
	c-4.5944214,3.8719482-10.1580811,8.873291-15.6644897,14.1612549
	c-17.9000244,17.0999756-35.9000244,29.7999268-60.7999878,42.9000244
	c-43.9000244,22.8999023-86.8000488,29.6999512-132.5,20.7999268c-60.2000122-11.5999756-113.3000488-57.0999756-130.5-111.9000244
	c-6.4000244-20.0999756-8.5-50.5999756-5.1000366-71.6999512c3.7000122-23.0999756,14.7000122-43.4000244,33.2000122-61.5
	c10.5-10.3000488,32.2999878-26.5,42.5-31.5999756c12.2999878-6.2000732,31-10.5,45.2999878-10.4000244
	c22,0,44.2000122,7.3000488,57.2999878,18.8000488c11,9.5999756,17.2000122,21,26.7000122,48.3999023
	c10.4000244,30,18.1000366,43.8000488,31.7999878,56.6000977c14.7000122,13.6999512,32.5983887,21.1259766,53.4984131,21.026001
	c13.5999756,0,23.1016235-2.526001,34.3016357-8.1260986c10.6999512-5.3999023,16.5999756-10.0999756,23.8999634-19.3999023
	c12.6000366-15.9000244,20.7999878-33.4000244,23.9000244-50.8000488
	c2.3121948-11.7137451,1.6437378-26.0692139-0.4000244-39.8000488
	c-4.3999634-25.2999268-17.7000122-58.7999878-31.2999878-79.0999756
	c-30.5-45.2000122-90.0999756-82.7999878-143.2000122-90.3999634
	C813.3060913,881.8896484,795.5061035,881.2896729,770.4060669,883.5896606z M344.4060669,1036.989624
	c-12.5,1.5-23.7999878,6.4000244-32.7999878,14.1000977c-10.7000122,9.1999512-19.5,25.8999023-21.6000061,40.8999023
	c-4.8999939,35.6000977,25.7999878,69.9000244,62.8999939,70.4000244c16.8999939,0.2000732,31.5-5.9000244,44-18.4000244
	c8.7000122-8.5999756,13.1000061-16.1999512,16-27.5999756c6.3000183-24.4000244-1.8999939-51-20.3999939-66.2999268
	C380.4060669,1040.1896973,361.2060852,1034.8896484,344.4060669,1036.989624z"/>
<path class="st3" d="M807.3415527,118.965004c4,0,51.8999634,3,64.1999512,4
	c35.3000488,2.8999939,71.1000366,8.7000046,105,17.0999985c142.8000488,35.3000031,282,129.3999939,378.7000732,255.8999939
	c15.8999023,20.9000244,42.1999512,62.4000244,55.8999023,88.5c20.8000488,39.5000305,42.5,96.5000305,54.4000244,143.0000305
	c3.5096436,13.7461548,8.1826172,35.6698608,11.217041,51.7411499c2.1530762,11.4036865,3.3890381,21.1700439,3.3890381,21.1700439
	s-5.1646729-7.213501-11.0775146-17.1787109c-4.6175537-7.7822876-10.178833-17.4977417-15.5285645-27.2324829
	c-44.7999268-81.5-88.0999756-137.3000488-136-175.5000305c-9.7999268-7.7999878-29.4576416-20.4786987-29.4576416-20.4786987
	s3.2576904,13.278717,7.4576416,28.5787048c16.8000488,62,25.5,129.6000366,22.5999756,174.9000244
	c-3.3999023,53.0999756-9.5,85-23,121.7999878c-15.8999023,43.0999756-33.2999268,74.7999878-57.2999268,103.9000244
	c-8.7000732,10.5999756-30.9000244,32.5-41.3000488,41c-26.0999756,21-69.5,46-100.5,57.8999634
	c-5.7999268,2.2000122-11.5,4.5-12.6999512,5.1000366c-1.3000488,0.5999756-3.5396729,1.3396606-3.5396729,1.3396606
	s1.8395996-4.7396851,3.8395996-9.1397095c9.5-20.7999878,16.1000977-40.5,18.9000244-56.7999878
	c3-17.5,1.5-44.2000122-3-55.0999756c-21.2999268-51.2000122-74.0999756-85.5-131.5-85.5
	c-15.6999512,0-24.2999878,1.0999756-42.5,5.5c-72.3999634,17.3999634-122.6999512,59-153,126.3999634
	c-9.2999878,20.8000488-14.5,38.2000122-18.5999756,62.6000366c-3.2000122,18.7000122-3.2000122,48.6000366-0.0999756,66.999939
	c5.5,32,13.6999512,56.9000244,27.7999878,84.5c12.7999878,25.2000732,26.8999634,44.6000977,47.8999634,65.6000977
	c23.3000488,23.5,43.1000366,37.6999512,72,51.8999023c19.3000488,9.5,31.3000488,14.1000977,48.9000244,19
	c31.4000244,8.6000977,49.5,10.9000244,86.0999756,10.9000244c28.2000732,0,36.5-0.5999756,60-4.5
	c21.4000244-3.5,34.5-6.9000244,63-16.2999268c77-25.6000977,133.9000244-53.4000244,195-95.6000977
	c16-11,34.5158691-23.0078125,34.5158691-23.0078125s-1.5158691,3.6079102-10.8157959,18.3078613
	c-81.4000244,129.9000244-196.7000732,223.3000488-342.3000488,277.5
	c-48.5,18.0999756-73.4000244,24.4000244-137.9000244,35.1999512c0,0-25.8662109,4.711792-35.6711426,5.7401123
	c-15.5650024,1.4960938-37.0026245,1.9368896-37.0026245,1.9368896
	c-85.3000488,2.8000488-153.0261841-7.0769043-228.8262329-32.0769043
	c-11.0212402-3.6582031-22.2321167-7.6964111-30.4788208-10.8811035
	c-15.4934082-5.5384521-15.9469604-7.7109375-15.9469604-7.7109375s8.8896484,0.2923584,26.6896362,0.6922607
	c31.2000122,0.7000732,115.736145-2.1002197,134.236145-4.2003174c30.9000244-3.5999756,67.5-11.1999512,92-19
	c9.4000244-3,52.3739624-20.7133789,52.3739624-20.7133789s-8.5739136-2.1865234-18.973938-4.7866211
	c-50.2999878-12.5999756-115.5-38.2999268-157.9000244-62.5c-33.3999634-18.8999023-60.1999512-39-85.8999634-64.2999268
	c-26.1000366-25.5999756-45.5-51.2000732-62.9000244-82.7000732c-22.8999939-41.3999023-34.6000061-81.0999756-38.6999817-131
	c-1.6732788-19.4766846-0.7931213-49.9735107,1.4411621-72.4213257c1.1039124-11.0911865,4.5879211-27.1952515,4.5879211-27.1952515
	s2.1708984,4.8166504,4.9709167,10.6166382c3.7999878,7.7999878,6.7999878,12.2000122,13.7999573,20
	c24.3000488,27.2000122,39.9000244,38.0999756,64.000061,44.7000122c11.5999756,3.1999512,35.7999878,3.1999512,50.1999512,0
	c17.2000122-3.9000244,35.8000488-11.5,54.5-22.6000366c8.6000366-5,24.7000122-20.8999634,32.6000366-32.0999756
	c40.0999756-56.7999878,49.2000122-138.7000122,22.3999634-201.5c-24-56.2999878-76.5999756-109.2000122-129.2999878-130.4000244
	c-30.7999878-12.3999634-60.2999878-17.5999756-99.1999817-17.5999756c-33.6000061,0-61.3000183,4.0999756-88.5,13.2000122
	c-19.5,6.3999634-43.6000061,18.5-64.5,32.1999512C324.14151,680.6650391,293.64151,712.4650269,272.14151,747.9650269
	c-27.2999878,45.0999756-45,94.2000122-56.5999908,157.2999878c-3.1999969,17.7000122-5,33.2999878-7.5,65.4000244
	c-1.1000061,14.1999512-2.5,30.6999512-3,36.7999878c-2,22.7999878-0.6999969,82.2000122,2.5,111.2999878
	c0.8000031,7.4000244,1.9269867,15.9984131,1.9269867,15.9984131s-15.5269928-27.8984375-24.9269867-47.2984619
	c-21.3000031-43.5999756-38.6999969-95.7999268-51.1000061-153.3999634c-4.0999908-19-9.7999954-62.8999634-12.3999939-95.5
	c-3.7000046-46.5999756,1.3999939-112.7999878,13-169.0999756c25.5-123.9000244,62.3999939-202.7000122,141.8000031-303.0000305
	c29.2999878-36.8999939,61.1999817-68.1000061,101.1000061-98.8999939c4.1000061-3.1000061,8.381073-5.9208679,8.381073-5.9208679
	s-3.0810852,5.7208557-6.5810852,11.4208679c-8.8999939,14.5-45.8999939,78.6000061-54.7999878,94.8999939
	c-27.3000183,50.3000183-44.8000183,97.8000183-51.8000183,140.5c-2.6999817,16.3000183-4.3918457,36.5239563-4.3918457,36.5239563
	l-0.4655151,4.0583496l20.7573547-20.182312c17.8000183-17.9999695,27.5-26.7999878,48.9000244-44.7999878
	c52.8999939-44.3999939,98-70.3999939,155.6999817-89.5c43.1000061-14.3999939,76.1000061-19.3999939,119.8999939-18.2999878
	c51.7000122,1.2999878,98.1000366,13.1999817,145.5,37.2999878c23.4000244,11.8999939,51.5,30,68.5,44.1000061l7.241333,6.0374756
	l-12.741333,0.3625183c-22.2999878,1.1000061-49.3999634,8.5-70.7999878,19.3000183
	c-31.2999878,15.7999878-51,47.8999939-55.2000122,90.1000061c-2.5999756,26,2.5,53.2999878,15.2000122,80.5
	c20,43,66.4000244,82.5999756,118.2000122,100.5999756c31.7999878,11.1000366,64.4000244,14.7000122,98.4000244,10.9000244
	c67.5-7.5,124.7999268-40.6000366,165.9000244-95.7000122c28.5999756-38.2999878,49.5999756-90.9000244,53.2999268-133.5
	c1.5999756-17.5,0.8000488-57.3000183-1.4000244-72.3000183c-4.7999268-33-11.3999023-55-25-83.5
	c-41.7241211-86.8843994-122.0975342-161.4318848-244.2428589-226.4811249
	c-2.2712402-1.2095642-6.8571167-3.618866-6.8571167-3.618866s-37.2296143-19.4114075-46.2086792-23.4177551
	c-3.4902954-1.5842972-6.3112793-2.7500763-8.2250366-3.5338974c-1.6711426-0.6763916-11.6697998-4.5159149-11.6697998-4.5159149
	S806.0415039,118.965004,807.3415527,118.965004z"/>
<path class="st4" d="M800.0934448,97.9259872c0,0,16.8179321,12.5726089,35.1640015,26.7894211
	c11.8668213,9.195816,24.5625,19.1408691,34.3424683,26.9569855c131.9000244,105.4001465,265.1001587,231,369.500061,348.4001465
	C1329,601.272522,1398.1999512,695.5725708,1448.4001465,785.3726196l7.6999512,13.8999023l-7.5,13.1000977
	c-23.1999512,40.5-51,80-84.1999512,119.6999512c-14.9008789,17.7583618-32.8571777,38.387085-43.001709,49.5385132
	c-4.7651367,5.2380981-7.9528809,8.687561-7.9528809,8.687561s-3.345459-9.4260254-6.845459-19.8261719
	c-45.4001465-134.0998535-120.9000244-283-218.3000488-430.0998535
	c-44.5-67.2002258-82.2001343-119.7002258-135.7001343-188.8000793c-13.8999023-18-57.2999268-72.1000977-66.5999756-83
	c-4.1999512-5-8.6999512-10.4001465-10-12.1000977c-3.0999756-3.8999023-29.0999756-34.8999023-47-55.8999023
	c-7.5-8.8000488-17.1999512-20.4001465-21.5-25.8000488c-4.4000244-5.3999023-8.9960327-10.2277985-8.9960327-10.2277985
	s-9.8313599,10.446991-22.2508545,24.4742432c-20.9888916,23.7058716-52.427124,60.3529358-74.3530884,87.0536041
	c-100.4000244,122.1999512-160.1999512,220.3999023-190.5,313.0000305c-5.4000244,16.5-11.6069336,41.9919434-11.6069336,41.9919434
	s3.9069824-2.7919922,56.2069092-46.3920898c38.5-32.1999512,51-42.6999512,86.5-72.5998535
	c9.5-8.0000305,32.4000244-27.3000793,51-43.0000305s47.0999756-39.8000488,63.4000244-53.5
	c16.3000488-13.8000488,32-26.9001465,34.8000488-29.3000488l5.2999268-4.3999023l2.7000732,2.1999512
	c6.8999023,5.3000488,37.1999512,35.1999512,54.7999268,53.8999023
	c87.7000732,93.6999817,156.8000488,189.900177,211.8001099,295.1999817
	c4.2282715,8.0292969,7.7424316,14.5180664,7.7424316,14.5180664s-4.6661377,6.4035645-11.5424805,14.3820801
	c-22.5999756,26.1999512-69.2999878,68.8000488-124.2999878,113.3000488c-36,29.0998535-100.942749,78.347168-100.942749,78.347168
	s-3.9572754-3.347168-7.557251-6.6472168c-10.8000488-10-31.3000488-35.3000488-43.1000977-53.4001465l-3.7999268-5.7998047
	l2.7999268-2.8000488c1.6000977-1.5,6.5-6,10.9000244-10c34.0999756-31.3000488,146.2745361-143.1062012,146.2745361-143.1062012
	s-7.5744629-21.4938965-13.8745117-34.6938477c-14.5999756-30.8000488-37.1999512-63.6999512-65.5-95.1999512
	c-20-22.3000488-63.0999756-63-66.8000488-63c-0.6999512,0-7.3999023,3-14.6999512,6.6999512
	c-47.5,24-129.3000488,87.3000488-220.9000244,171.1000977c-28.6999512,26.2998047-77.1999512,74.7998047-91.9000244,92
	c-6.2999268,7.2998047-11.5,13.0998535-11.5999756,13c-0.6999512-0.7001953-10.5-17.7001953-17.1999512-29.8000488
	c-34.9000244-62.9001465-69.0999756-149.1999512-83.9000244-211.6999512
	c-3.0999756-13.2001953-9.0101318-42.2841797-9.0101318-42.2841797s20.1101074-29.3159485,36.9101562-50.9160461
	c65.4000244-83.6999512,163.2999268-181.5998535,283.2999268-283.1999512c42-35.5998535,79.9000244-66,126.1000977-101.3999023
	C796.8999634,100.1723938,800.0934448,97.9259872,800.0934448,97.9259872z M275.3999634,622.272522
	c-55.4000092,62.1999512-85.4000092,101.6999512-116.7000122,153.3999634
	c-6.2999878,10.6000366-12.2999878,20.6000366-13.1999969,22.3000488l-1.5999908,3.0999756l7.6999969,13.7999878
	c55.1999969,98.7999878,134.0999908,204,236.4000092,315.2000122c116,126.0999756,265.3999939,262,396.4999695,360.5999756
	c9.9310303,7.5235596,15.6831665,11.4014893,15.6831665,11.4014893s2.9679565-2.1098633,5.3168335-3.9014893
	c75.6000366-57.1999512,155.7000122-124.5,229.000061-192.0999756c44.2999268-40.9000244,110.9000244-109.3000488,145.0999756-149
	c23.5999756-27.4000244,54-66.3000488,67.8000488-86.8000488l4.8999023-7.1999512L1249.5,1047.7724609
	c-13.3000488-73.6999512-50.4000244-170.1999512-97.2000732-252.999939
	c-5.1999512-9.2000122-9.5999756-16.7000122-9.6999512-16.7000122c-0.1999512,0-5.1999512,5.7000122-11.1999512,12.7000122
	c-13.7000732,16.2000122-47.7000732,50.7000122-74.9000244,76.2000122
	c-79.1000366,74.1999512-159.000061,139.0999756-213.000061,173.0999756
	c-7.3273315,4.6009521-18.4296265,10.7504883-27.0941162,15.2049561
	c-6.5895386,3.3876953-13.8236694,6.1677246-13.8236694,6.1677246s-3.0219116-2.6605225-7.5328369-6.4562988
	c-15.2037964-12.7938232-46.1568604-42.718811-61.3493652-59.9163818c-32.7000122-37.0999756-57.5999756-76.2999878-71.2000122-112
	c-2.2779541-5.9299316-4.8766479-15.2227783-4.8766479-15.2227783s4.3276978-3.9522095,10.8098145-10.7496948
	c6.3016968-6.6083984,16.2295532-16.1790161,31.3668823-31.1275024c43-42.5,84.5999756-82.9000244,105.5999756-102.500061
	l11.9000244-11.1999512l-8.3000488-12c-7.6034546-11.1422729-17.7682495-24.022522-26.666687-34.288269
	c-9.7095337-11.201416-19.4155273-19.4104004-19.4155273-19.4104004s-11.8901978,8.7476807-25.8380127,19.3834839
	c-30.2167969,23.0415039-79.2648926,61.8054199-104.5797729,83.0151367
	c-40.8999634,34.3000488-85.5999756,76.9000244-100.2999878,95.4000244l-6.2000122,7.7999878l7.7000122,14.7000122
	c53.2000122,102,120.2999878,196.500061,203.6000366,286.7000122
	c13.8999634,15.0999756,57.0999756,58.1999512,62.1999512,62.0999756l3.5,2.7000732l5.3000488-4.4000244
	c5.6999512-4.8000488,73.3999634-61.8000488,114.2999878-96.4000244c14.2999878-12.0999756,32.2999878-27.3000488,40-33.6999512
	c7.5999756-6.4000244,24.2999878-20.3000488,36.9000244-31c55.7999268-47.000061,99.0999756-82.8000488,100-82.8000488
	c1.0999756,0,0.2999268,3.2999878-4.9000244,21.5999756c-27.5999756,96.3000488-85.2999878,195.4000244-186,319.9000244
	c-24.2000122,29.8000488-63.6000366,76-89.5,104.9000244c-6.4000244,7.0999756-12.6000366,14.0999756-13.9000244,15.6999512
	c-1.5383301,1.8857422-3.7755737,3.8708496-3.7755737,3.8708496s-2.2620239-2.354248-3.9244385-4.5708008
	c-1.5-2-9.0999756-11.2000732-16.8999634-20.4000244c-56.9000244-67.5-76.2000122-90.6999512-103.2000122-124.5
	c-111.5999756-139.5-204.2999878-277.2999878-274.2999878-408c-15.3000183-28.4000244-45.5-89.9000244-57.4000244-116.5
	c-19.8999939-44.5-39.3999939-93.9000244-52.2999878-132.2999878c-3.3999939-10.4000244-6.5-19.1000366-6.7000122-19.3000488
	C286.4999695,610.272522,281.3999634,615.5725098,275.3999634,622.272522z"/>
<path class="st5" d="M791.8366089,77.6713028c-17.3999634,36.7000046-54.5,111.3000107-65.3999634,131.6000061
	c-28.6000366,53.1000061-60.3000488,105.2000122-107,176.1000061
	c-9.1000366,13.7000122-16.5285034,25.9377136-16.5285034,25.9377136s30.4284668-9.2377014,47.128479-15.9377136
	c8.7999878-3.6000061,16.5638428-6.550354,16.5638428-6.550354s15.236145,20.9503479,22.9361572,32.550354
	c44.7999878,67.2000122,78.4000244,148.0000305,97.7999878,234.6999817c4.2999878,19.1000366,9,46.5,10.6000366,61.5
	c0.6999512,6.2000122,2.1121216,12.1276245,2.1121216,12.1276245s0.8878784-3.8275757,1.2878418-7.6276245
	c1-10.7999878,5.4000244-38.5,8.6000366-54.1999512c16.5-80.1000366,45.8999634-156.9000244,85.5-222.9000244
	c9.3999634-15.7000122,28.5-44.3000183,35.5-53.1000061l2.5999756-3.2000122l13.7999878,5.7000122
	c34.0609131,13.7626343,49.8407593,16.7467346,49.8407593,16.7467346s-7.8407593-12.3467407-16.4407349-25.2467346
	c-59.5-89.7000122-93.7000122-147.8999939-131.7000122-224c-21.0999756-42.0999985-45.9000244-93.1000061-47.4000244-97.3000031
	c-0.5999756-1.5-1.3527222-3.3869553-1.3527222-3.3869553S795.9366455,69.0713043,791.8366089,77.6713028z M805.6365967,289.8713074
	c12.7000122,17.5,37.2000122,41.2000122,59.5,57.7999878c3.1000366,2.3000183,6.7092285,4.6960754,6.7092285,4.6960754
	s-4.1091919,7.8039246-8.0092163,15.4039307c-30.7999878,61.6000061-53.3999634,134-62,199.1000366
	c-0.84375,6.093689-1.9191895,12.3222656-1.9191895,12.3222656s-1.4120483-7.2160034-2.5808105-15.8222656
	c-8.5-62.0000305-29.2999878-129.3000183-58.7999878-189.9000244l-10.2000122-20.8999939l3.5-2.6000061
	c22.2000122-16.8000183,47.7000122-41,60.4000244-57.3999939c3.7000122-4.8000183,7.8518677-9.7609863,7.8518677-9.7609863
	S803.2366333,286.6712952,805.6365967,289.8713074z M183.5366058,464.5713196
	c79.0000153,117.1000061,103.4000092,158.3000183,160.3000031,270.8000183
	c11.1000061,22,21.2996521,41.3209839,21.2996521,41.3209839s0.7003479-2.0209961,1.0003357-3.5209961
	c0.2000122-1.5,2.1000061-10.7000122,4-20.2999878c2-9.6000366,4.3000183-23.1000366,5.2000122-29.9000244
	c0.7999878-6.7999878,1.8155823-13.2537842,1.8155823-13.2537842s6.4844055-0.5462036,13.7844238-1.3461914
	c67.6000061-7.2000122,140.4999695-2.7000122,212.6000061,13c37.9000244,8.2999878,88.2999878,23.8999634,119,36.8999634
	c8.4000244,3.5,16.4140015,6.4886475,16.4140015,6.4886475s-3.7139893-3.588623-7.9140015-6.588623
	c-36.7000122-26.2999878-86.7000122-74.7999878-123.7000122-119.7999878
	c-31.5999756-38.4000244-64.4000244-89.3000488-82.5999756-128.2000122
	c-7.1000366-15.3000183-14.1679993-31.5294189-14.1679993-31.5294189s3.3679504-2.8706055,7.2679749-5.6705933
	c7.9000244-5.7999878,27.0999756-21.8999939,37.5-31.6000061l7-6.3999939l-5.5-0.1000061c-3,0-16.2999878,0.7000122-29.4000244,1.5
	c-53.0999756,3.2999878-97.1999817,4.7000122-150.0999756,4.7999878c-65.2999878,0.1000061-77.7000122-0.5-191.8999939-8.7999878
	c-11.5-0.7999878-24.5708923-1.5-24.5708923-1.5S165.8366089,438.4713135,183.5366058,464.5713196z M448.4638672,514.4986572
	c0,0,22.3727417,33.4726562,30.17276,43.8726807c21.3999939,28.3999634,37.7999573,47.2999878,61.6000061,71
	c22,21.8999634,50.2999878,46.6999512,64.8999634,57c1.3125,0.906189,3.8670654,3.5079956,3.8670654,3.5079956
	s-6.31073-2.6517334-13.6670532-5.6080322c-49.7000122-20-107.6000061-34.8999634-160.7999878-41.3999634
	c-18.2000122-2.2000122-39.5-4-47.9000244-4c-4.7999878,0-9.7310791-0.1034546-9.7310791-0.1034546
	s-1.0689087-7.996582-2.0689087-15.3965454c-3.3999939-23.9000244-8.3999939-43.6000366-17.1000061-67.7000122
	c-2.7999878-7.6000366-4.8999939-14-4.7999878-14.2000122c0.1999817-0.0999756,6.6999817-1.2999878,14.2999878-2.5
	c23-3.7000122,51.4000244-11.9000244,71.5-20.5999756C447.436615,514.5712891,448.4638672,514.4986572,448.4638672,514.4986572z
	 M1384.3366699,434.3713074c-74.4000244,5.6000061-103.2000732,6.7999878-163,6.7000122
	c-49.9000244,0-94.3000488-1.3000183-140.5-4.2000122c-11.9233398-0.7299805-20.668457-1.2304077-26.9875488-1.5306091
	c-11.859375-0.5634155-15.7421875-0.4734192-15.7421875-0.4734192s4.9422607,5.4061584,10.1495361,10.1452637
	c10.52771,9.5812378,27.152832,23.506958,34.7801514,28.658783c2.5999756,1.7999878,5.9193115,4.6960449,5.9193115,4.6960449
	s-1.1740723,2.7142944-2.8363037,6.8867493c-4.2655029,10.7064819-13.7919922,30.8865662-22.282959,46.7171936
	c-31.9000244,59.0999756-71.7000732,111.7999878-123.4000244,163.4000244
	c-23.8000488,23.6999512-45.2000122,42.6999512-66.4000244,58.6999512c-7.2999878,5.5-13.4706421,10.8637085-13.4706421,10.8637085
	s4.7706299-1.6636963,9.3706665-3.6636963c56.6999512-24.5,133.0999756-44.5999756,197.9000244-51.7999878
	c52-5.7999878,106.2999268-5.9000244,150.6999512,0c1.7969971,0.2246094,4.2893066,0.453064,4.2893066,0.453064
	s0.3901367,2.7509766,0.8529053,6.1777344c0.3105469,2.2999268,0.6552734,5.4474487,1.1578369,9.7692261
	c0.9810791,7.848938,3.1894531,20.029541,5.3502197,30.4031372c2.2440186,10.7728271,5.15625,20.421814,5.15625,20.421814
	s8.5935059-17.125,18.4935303-37.125c10-19.8999634,20.0999756-39.7999878,22.5-44.1999512
	c2.2999268-4.4000244,8.3999023-15.9000244,13.5-25.5c20.1999512-37.9000244,41.6999512-75.4000244,62.6999512-108.9000244
	c15.8000488-25.0999756,83.9006348-125.9048157,84.9000244-127.2000122c0.9993896-1.295166,1.904541-3.0597534,1.904541-3.0597534
	S1429.4147949,431.0119324,1384.3366699,434.3713074z M1162.4366455,518.8713379
	c23.4000244,9.5999756,47.6999512,16.5,70.6999512,20.1999512c8.7919922,1.4452515,14.4453125,2.5109253,14.4453125,2.5109253
	s-1.1711426,3.1602783-2.2452393,5.1890869c-2.8000488,5.5-10.7000732,29.7999878-14,43.4000244
	c-1.9000244,7.5999756-4.6000977,21.2999878-6,30.5c-1.4000244,9.0999756-2.5147705,17.9294434-2.5147705,17.9294434
	s-4.7852783,0.2705688-9.2852783,0.2705688c-16.1999512,0-53.5,4-79.6999512,8.5999756
	c-43.3000488,7.5-89.8000488,20.7999878-129.4000244,36.7999878c-4.9000244,2-12.0855103,4.7167358-12.0855103,4.7167358
	s6.5855103-5.916748,13.0855103-11.1166992c39.1999512-31.2000122,77.0999756-69.7000122,108-109.5
	c12-15.5,25.7999268-35.1000366,32.2999268-45.7000122c2.5-4.2999878,5.7180176-8.3516846,5.7180176-8.3516846
	S1156.9366455,516.6713257,1162.4366455,518.8713379z M697.5366211,606.9713135c20.5,9.7000122,57.7999878,26.5999756,61.5999756,28
	l3.7025757,1.6082764l4.8974609,14.791748c7.7000122,23.6999512,25.5,96.7999878,30.7000122,125.8999634
	c1.0499878,5.9500122,2.1054688,8.5761719,2.1054688,8.5761719s1.2817383-3.4209595,2.3005371-8.4745483
	c0.2948608-1.4625244,0.6236572-3.1275024,0.9939575-5.0015869c8.7000122-44.6000366,22.5-100.9000244,31.1000366-127.1000366
	c0.5195312-1.597229,0.9576416-2.9204102,1.3513794-4.0272827c0.8740845-2.4576416,1.9331055-5.0543823,1.9331055-5.0543823
	s2.0844727-1.1098633,3.4154663-1.7183228c3.8000488-1.9000244,60.7000122-27.4000244,67.5-30.2999878
	c2-0.9000244,4.5779419-1.8729248,4.5779419-1.8729248s1.9220581,17.4729004,3.7221069,36.7728882
	c1.7999878,19.4000244,3.5999756,38,4,41.3000488l0.5999756,6l-14.5,15.5999756
	c-17.7000122,19.0999756-68.7000122,67.2999878-92.2000122,87.2000122
	c-1.5999756,1.3999634-3.5106812,3.7106323-3.5106812,3.7106323s8.7106934-2.6106567,17.5106812-5.5106201
	c39.2900391-13.0966797,83.7064819-26.2451782,109.1779785-32.5891724
	c9.925354-2.4719849,20.5102539-4.5527344,20.5102539-4.5527344s3.5479126,1.7891846,16.2976074,10.7871704
	c6.809021,4.8054199,16.5755005,11.8499756,30.8141479,22.1547241c11.4000244,8.2999878,21.6574707,15.869812,21.6574707,15.869812
	s-4.7574463,3.8302002-9.2574463,6.8302002s-19.7000122,13.6999512-33.7000122,23.6999512
	c-11.9500122,8.6000366-18.4603882,13.5283203-22.3104248,15.8782959c-1.8143311,1.1074829-3.6286621,2.3554688-3.6286621,2.3554688
	s-2.1884766-0.3751221-3.0609131-0.5337524c-21.2999878-3.5999756-69.2999878-17-121.5-34
	c-24.3999634-8-23.0836182-7.2354736-23.0836182-7.2354736s6.2836304,5.7354736,13.383606,11.9354858
	c35.6000366,31.7999878,68.4000244,63,84.8000488,80.7000122c6.6828003,7.1863403,13.1107788,13.6536255,13.1107788,13.6536255
	s-1.2501831,13.6907959-3.310791,33.6463623c-1.4000244,14-3.1000366,30.7999878-3.7999878,37.4000244
	c-0.9000244,9.5999756-1.2924194,12.6511841-1.2924194,12.6511841s-18.0076294-8.1511841-36.607605-16.6511841
	s-34.9000244-15.8000488-36.2000122-16.1000366c-1.4187012-0.5111084-3.7838745-1.6970215-3.7838745-1.6970215
	s-1.2788086-3.4077759-2.6091919-7.4378052c-7.9664917-24.1321411-26.5944824-98.9038086-33.1069336-134.4651489
	c-0.7312622-4.1062622-1.8475342-7.8344727-1.8475342-7.8344727s-1.1149292,3.1531982-1.5524292,5.734436
	c-2.1000366,11.3000488-14.4000244,67.1000366-18.7000122,84.6000366
	c-3.0420532,12.2949219-7.6907349,29.6105347-11.2477417,42.0701904c-2.055542,7.2002563-5.1245117,17.3247681-5.1245117,17.3247681
	s-3.527771,2.2050171-16.527771,7.8050537c-4.0999756,1.7999878-19.2000122,8.5-33.3999634,14.8999634
	c-14.3000488,6.4000244-26.9502563,11.7512207-26.9502563,11.7512207s-1.5497437-15.6511841-3.0497437-32.6511841
	c-1.5-17.1000366-3.3000488-35.5-4-41l-1.2000122-9.9000244l7.7000122-8.5999756
	c9.7999878-10.8000488,46.3999634-47,63.3999634-62.6000366c16.5-15.2000122,32.2999878-29.2999878,35.5-31.8999634
	c1.4000244-1.1000366,4.1710205-3.8527832,4.1710205-3.8527832s-9.4710083,2.652771-20.9710083,6.3527832
	c-45.9000244,15.1999512-85.9000244,26.8999634-112.9000244,33l-14.2999878,3.1999512l-6.7000122-4.5999756
	c-20.1999512-13.9000244-61.3398438-44.1516724-61.3398438-44.1516724s5.4398804-4.2483521,10.8398438-7.9483032
	c30.1000366-21.3000488,48.2000122-34.2000122,51.9000244-37.1000366c2.5999756-2.2000122,6.5227051-4.0895996,6.5227051-4.0895996
	s19.5917358,3.9638062,39.2846069,9.3140869c25.3114624,6.87677,59.4785767,17.1832886,93.3927002,28.3755493
	c6.7999878,2.1999512,14.1715088,4.4138184,14.1715088,4.4138184s-3.9714966-4.3138428-8.7715454-8.4138184
	c-8.5999756-7.4000244-11.5999756-10.1000366-36.2999878-32.8000488
	c-12.1771851-11.2523193-42.5306396-41.3342896-56.7713013-56.0484619
	c-4.2366333-4.3775024-8.4011841-8.9631348-8.4011841-8.9631348s-0.2687988-2.315979,0.4306641-11.5101929
	c0.4638062-6.0959473,1.3666992-15.4667358,2.8418579-30.1781616c2.1999512-22,4.6850586-42.5822144,4.6850586-42.5822144
	S690.2366333,603.5712891,697.5366211,606.9713135z M353.936615,844.5712891
	c-41.5,83.5-79.3000183,151.8000488-113.9000092,205.8000488c-9.8000031,15.1999512-49.0999908,74-68.5,102.5
	c-6.3000031,9.2999268-10.8777924,16.1485596-10.8777924,16.1485596s21.4777985-1.4486084,44.2778015-3.048584
	c132.2999878-9.6999512,187.1999817-10.1999512,315.1000061-3c20.2000122,1.0999756,32.5061646,1.8190918,40.3045654,1.9285889
	c0.954895,0.0039062,1.2479248-0.0631104,1.2479248-0.0631104s-1.7219238-1.7255859-2.8341064-2.9105225
	c-1.5523071-1.6536865-4.4460449-4.3204346-9.2183838-8.6549072c-14.2000122-13-21.4000244-19-31.5-26.3000488
	c-3.5394287-2.581665-7.4679871-5.4898682-7.4679871-5.4898682s2.5074158-6.255249,7.4679871-17.1101074
	c22.3999634-49.4000244,53.8999634-99.7000122,90-143.7000122c35.2000122-43.1000366,80.5-87.1000366,120.5999756-117.2999878
	c1.2189941-0.9111328,2.3632202-1.7235718,3.4039307-2.4562988c1.7879639-1.2589111,7.2522583-6.0211182,7.2522583-6.0211182
	s-6.522644,2.4306641-8.2453613,3.1898804c-8.5209351,3.7553101-25.1538086,10.2133789-39.7108154,15.2875366
	c-76,26.6999512-160.7999878,41.5-237.3999939,41.5c-20.1000061,0-58.3999939-2.4000244-73.3000183-4.6000366
	c-1.4261475-0.2037354-3.818634-0.3548584-3.818634-0.3548584s-0.3119507-2.9075928-0.9548035-7.5437622
	c-0.3653259-2.6348267-0.8042908-6.190918-1.4265442-11.0013428c-0.7194824-5.4172974-2.3703918-14.7572021-4.1112366-23.729187
	c-2.372467-12.2271729-5.3681641-24.380188-5.3681641-24.380188S359.6365967,833.1713257,353.936615,844.5712891z
	 M608.5739136,910.7015991c0,0-3.7373047,3.1697388-7.4373169,5.8696899c-21.3999634,15.6000366-63,54.3000488-85.5,79.5
	c-21.3999939,24-44.9999695,54.9000244-62.0999756,81.5c-2.6000061,4-4.6868286,7.6077881-4.6868286,7.6077881
	s-7.7131653-2.8077393-15.4131775-5.8077393c-23-9.0999756-44.1000061-15.0999756-66.3000183-18.7000732
	c-7.8999939-1.2999268-14.2999878-2.5999756-14.2999878-3c0-0.3999023,1.7999878-5.2999268,4.1000061-10.8999023
	c7.8999939-19.9000244,16.5-54.7000732,18.5-74.4000244c0.5625-5.53125,1.5166321-11.1671143,1.5166321-11.1671143
	s6.0833435-0.2610474,14.583374-0.6329346c64.6000061-3,137-18.7999878,201.7999878-44.1999512
	C608.6365967,910.3713379,608.5739136,910.7015991,608.5739136,910.7015991z M1234.4366455,824.9713135
	c-2.3000488,6.5-7.9000244,35.5999756-10.0999756,52.2999878c-0.8000488,6.6000366-1.4908447,12.5894165-1.4908447,12.5894165
	s-4.1523438,0.3894653-9.4685059,0.9506836c-9.6453857,1.0181885-24.9587402,2.350769-36.2407227,3.0599365
	c-53.6999512,3.1999512-116-1.9000244-176.3999634-14.5c-41.7000122-8.8000488-92.2000122-24.3000488-126.5-39
	c-5.9000244-2.5-12.8828735-4.9005127-12.8828735-4.9005127s6.4828491,5.5004883,13.7828369,11.0004883
	c73.7000122,56.4000244,145.6000366,140.7000122,188.2000732,220.5c9.5,17.9000244,25.939209,54.6242676,25.939209,54.6242676
	s-4.3392334,2.975708-9.1392822,6.5756836c-6.3826904,4.7297363-15.9282227,12.6643066-24.2893066,19.960083
	c-9.84729,8.5926514-17.967041,16.8978271-17.967041,16.8978271s9.0563965-0.1578369,19.1563721-0.8579102
	c35.6999512-2.2999268,79.9000244-4.2999268,123-5.5c65.3000488-1.7999268,113.6999512-0.0999756,215.0999756,7.3000488
	c23,1.5999756,43.9957275,2.9610596,43.9957275,2.9610596s-13.7956543-20.2611084-30.1956787-44.361084
	c-68.5999756-101.1999512-98.0999756-151.2999878-151.9000244-257.6999512
	c-11.8000488-23.4000244-21.7889404-43.8620605-21.7889404-43.8620605S1234.7399902,824.0970459,1234.4366455,824.9713135z
	 M1006.8366089,916.4713135c60.8999634,24.5,136.8999634,41.2000122,200.7000122,44.0999756
	c9.1922607,0.3900146,15.6791992,0.9313354,15.6791992,0.9313354s0.5222168,4.8954468,0.9207764,9.3687134
	c1.7000732,18.6999512,9.2000732,49.5999756,17.2000732,71c2.5,6.9000244,6.6430664,16.9681396,6.6430664,16.9681396
	s-2.1430664-0.2681885-17.3431396,2.2318115c-19.7999268,3.2000732-42.9000244,9.8000488-63.1999512,17.8000488
	c-8.4000244,3.2999268-16.4356689,6.7930908-16.4356689,6.7930908s-2.2644043-3.3930664-4.1643066-6.5931396
	c-8-13.5-28-41.1999512-42.9000244-59.6999512c-27.8000488-34.2000122-63.8000488-69.9000244-98.3000488-97.4000244
	c-6.5-5.0999756-14.2562866-11.3811035-14.2562866-11.3811035S995.8366089,912.0712891,1006.8366089,916.4713135z
	 M797.0870972,889.3728638c-1.7142944,11.9576416-4.4039917,28.1277466-6.7504883,39.7984619
	c-18.0999756,91.3999634-54.5,180.6000366-103.2000122,252.8999634
	c-14.1999512,21.2000732-21.3477783,29.4260254-21.3477783,29.4260254s-8.5521851-4.026001-15.9522095-7.1259766
	c-14.0999756-5.8000488-44.4000244-15.9000244-46-15.3000488c-0.5999756,0.2000732,4.1000366,7.9000244,10.2999878,17.3000488
	c50.6000366,76.5,84.2000122,131.6999512,116.3000488,191.5c8.3999634,15.6999512,42.1999512,84.0999756,60.3999634,122.1999512
	c4.7000122,9.7000732,9.2815552,18.7443848,9.2815552,18.7443848s0.8184814-1.8443604,1.2184448-2.9443359
	c1.7999878-5.6999512,58.6000366-120.3000488,71.6000366-144.5c29.0999756-54.2000732,63.3999634-110.5,114-186.8000488
	c5.5-8.1999512,10.3959351-15.9598389,10.3959351-15.9598389s-10.3945923,2.4060059-21.7011108,6.2412109
	c-8.918335,3.0251465-19.3787842,6.8704834-28.5948486,10.6186523c-7.4000244,3-13.2412109,5.7156982-13.2412109,5.7156982
	s-2.8138428-3.0977783-5.8679199-7.3343506c-5.8410645-8.1025391-15.1182861-21.5255127-21.2908936-30.9813232
	c-45.1999512-69-79.0999756-154.2000122-97.2999878-244c-2.6064453-12.8152466-5.1080933-27.5175781-6.7078857-39.1351318
	c-0.6098022-4.4282837-2.8187256-19.7614136-2.8187256-19.7614136S798.1489868,881.9658203,797.0870972,889.3728638z
	 M801.7366333,1033.0712891c8.7000122,65.0999756,31.5,137.8000488,62.7000122,200c3.5,7,7.182373,13.9963379,7.182373,13.9963379
	s-4.9824219,3.8037109-9.9824219,7.6036377c-19.0999756,14.5-39.8999634,34.8000488-54.7999878,53.4000244
	c-3.3999634,4.3000488-7.4881592,8.720459-7.4881592,8.720459s-2.9118042-3.720459-5.3118286-6.9204102
	c-13.2999878-18.3000488-34.9000244-39.0999756-62.7000122-60.4000244l-3-2.3000488l10.7000122-21.8999023
	c29.5-60.4000244,50.0999756-127.4000244,58.4000244-189.8000488c0.8999634-6.9000244,2.6815186-15.1344604,2.6815186-15.1344604
	S801.1365967,1027.9713135,801.7366333,1033.0712891z"/>
</svg>
