<?xml version="1.0" encoding="utf-8"?>
<!-- Generator: Adobe Illustrator 25.3.1, SVG Export Plug-In . SVG Version: 6.00 Build 0)  -->
<svg version="1.1" id="图层_1" xmlns="http://www.w3.org/2000/svg" x="0px" y="0px"
	 viewBox="0 0 1600 1600" style="enable-background:new 0 0 1600 1600;" xml:space="preserve">
<style type="text/css">
	.st0{fill:#FFAC00;}
</style>
<path class="st0" d="M800.0934448,97.9259872c0,0,16.8179321,12.5726089,35.1640015,26.7894211
	c11.8668213,9.195816,24.5625,19.1408691,34.3424683,26.9569855c131.9000244,105.4001465,265.1001587,231,369.500061,348.4001465
	C1329,601.272522,1398.1999512,695.5725708,1448.4001465,785.3726196l7.6999512,13.8999023l-7.5,13.1000977
	c-23.1999512,40.5-51,80-84.1999512,119.6999512c-14.9008789,17.7583618-32.8571777,38.387085-43.001709,49.5385132
	c-4.7651367,5.2380981-7.9528809,8.687561-7.9528809,8.687561s-3.345459-9.4260254-6.845459-19.8261719
	c-45.4001465-134.0998535-120.9000244-283-218.3000488-430.0998535
	c-44.5-67.2002258-82.2001343-119.7002258-135.7001343-188.8000793c-13.8999023-18-57.2999268-72.1000977-66.5999756-83
	c-4.1999512-5-8.6999512-10.4001465-10-12.1000977c-3.0999756-3.8999023-29.0999756-34.8999023-47-55.8999023
	c-7.5-8.8000488-17.1999512-20.4001465-21.5-25.8000488c-4.4000244-5.3999023-8.9960327-10.2277985-8.9960327-10.2277985
	s-9.8313599,10.446991-22.2508545,24.4742432c-20.9888916,23.7058716-52.427124,60.3529358-74.3530884,87.0536041
	c-100.4000244,122.1999512-160.1999512,220.3999023-190.5,313.0000305c-5.4000244,16.5-11.6069336,41.9919434-11.6069336,41.9919434
	s3.9069824-2.7919922,56.2069092-46.3920898c38.5-32.1999512,51-42.6999512,86.5-72.5998535
	c9.5-8.0000305,32.4000244-27.3000793,51-43.0000305s47.0999756-39.8000488,63.4000244-53.5
	c16.3000488-13.8000488,32-26.9001465,34.8000488-29.3000488l5.2999268-4.3999023l2.7000732,2.1999512
	c6.8999023,5.3000488,37.1999512,35.1999512,54.7999268,53.8999023
	c87.7000732,93.6999817,156.8000488,189.900177,211.8001099,295.1999817
	c4.2282715,8.0292969,7.7424316,14.5180664,7.7424316,14.5180664s-4.6661377,6.4035645-11.5424805,14.3820801
	c-22.5999756,26.1999512-69.2999878,68.8000488-124.2999878,113.3000488c-36,29.0998535-100.942749,78.347168-100.942749,78.347168
	s-3.9572754-3.347168-7.557251-6.6472168c-10.8000488-10-31.3000488-35.3000488-43.1000977-53.4001465l-3.7999268-5.7998047
	l2.7999268-2.8000488c1.6000977-1.5,6.5-6,10.9000244-10c34.0999756-31.3000488,146.2745361-143.1062012,146.2745361-143.1062012
	s-7.5744629-21.4938965-13.8745117-34.6938477c-14.5999756-30.8000488-37.1999512-63.6999512-65.5-95.1999512
	c-20-22.3000488-63.0999756-63-66.8000488-63c-0.6999512,0-7.3999023,3-14.6999512,6.6999512
	c-47.5,24-129.3000488,87.3000488-220.9000244,171.1000977c-28.6999512,26.2998047-77.1999512,74.7998047-91.9000244,92
	c-6.2999268,7.2998047-11.5,13.0998535-11.5999756,13c-0.6999512-0.7001953-10.5-17.7001953-17.1999512-29.8000488
	c-34.9000244-62.9001465-69.0999756-149.1999512-83.9000244-211.6999512
	c-3.0999756-13.2001953-9.0101318-42.2841797-9.0101318-42.2841797s20.1101074-29.3159485,36.9101562-50.9160461
	c65.4000244-83.6999512,163.2999268-181.5998535,283.2999268-283.1999512c42-35.5998535,79.9000244-66,126.1000977-101.3999023
	C796.8999634,100.1723938,800.0934448,97.9259872,800.0934448,97.9259872z M275.3999634,622.272522
	c-55.4000092,62.1999512-85.4000092,101.6999512-116.7000122,153.3999634
	c-6.2999878,10.6000366-12.2999878,20.6000366-13.1999969,22.3000488l-1.5999908,3.0999756l7.6999969,13.7999878
	c55.1999969,98.7999878,134.0999908,204,236.4000092,315.2000122c116,126.0999756,265.3999939,262,396.4999695,360.5999756
	c9.9310303,7.5235596,15.6831665,11.4014893,15.6831665,11.4014893s2.9679565-2.1098633,5.3168335-3.9014893
	c75.6000366-57.1999512,155.7000122-124.5,229.000061-192.0999756c44.2999268-40.9000244,110.9000244-109.3000488,145.0999756-149
	c23.5999756-27.4000244,54-66.3000488,67.8000488-86.8000488l4.8999023-7.1999512L1249.5,1047.7724609
	c-13.3000488-73.6999512-50.4000244-170.1999512-97.2000732-252.999939
	c-5.1999512-9.2000122-9.5999756-16.7000122-9.6999512-16.7000122c-0.1999512,0-5.1999512,5.7000122-11.1999512,12.7000122
	c-13.7000732,16.2000122-47.7000732,50.7000122-74.9000244,76.2000122
	c-79.1000366,74.1999512-159.000061,139.0999756-213.000061,173.0999756
	c-7.3273315,4.6009521-18.4296265,10.7504883-27.0941162,15.2049561
	c-6.5895386,3.3876953-13.8236694,6.1677246-13.8236694,6.1677246s-3.0219116-2.6605225-7.5328369-6.4562988
	c-15.2037964-12.7938232-46.1568604-42.718811-61.3493652-59.9163818c-32.7000122-37.0999756-57.5999756-76.2999878-71.2000122-112
	c-2.2779541-5.9299316-4.8766479-15.2227783-4.8766479-15.2227783s4.3276978-3.9522095,10.8098145-10.7496948
	c6.3016968-6.6083984,16.2295532-16.1790161,31.3668823-31.1275024c43-42.5,84.5999756-82.9000244,105.5999756-102.500061
	l11.9000244-11.1999512l-8.3000488-12c-7.6034546-11.1422729-17.7682495-24.022522-26.666687-34.288269
	c-9.7095337-11.201416-19.4155273-19.4104004-19.4155273-19.4104004s-11.8901978,8.7476807-25.8380127,19.3834839
	c-30.2167969,23.0415039-79.2648926,61.8054199-104.5797729,83.0151367
	c-40.8999634,34.3000488-85.5999756,76.9000244-100.2999878,95.4000244l-6.2000122,7.7999878l7.7000122,14.7000122
	c53.2000122,102,120.2999878,196.500061,203.6000366,286.7000122
	c13.8999634,15.0999756,57.0999756,58.1999512,62.1999512,62.0999756l3.5,2.7000732l5.3000488-4.4000244
	c5.6999512-4.8000488,73.3999634-61.8000488,114.2999878-96.4000244c14.2999878-12.0999756,32.2999878-27.3000488,40-33.6999512
	c7.5999756-6.4000244,24.2999878-20.3000488,36.9000244-31c55.7999268-47.000061,99.0999756-82.8000488,100-82.8000488
	c1.0999756,0,0.2999268,3.2999878-4.9000244,21.5999756c-27.5999756,96.3000488-85.2999878,195.4000244-186,319.9000244
	c-24.2000122,29.8000488-63.6000366,76-89.5,104.9000244c-6.4000244,7.0999756-12.6000366,14.0999756-13.9000244,15.6999512
	c-1.5383301,1.8857422-3.7755737,3.8708496-3.7755737,3.8708496s-2.2620239-2.354248-3.9244385-4.5708008
	c-1.5-2-9.0999756-11.2000732-16.8999634-20.4000244c-56.9000244-67.5-76.2000122-90.6999512-103.2000122-124.5
	c-111.5999756-139.5-204.2999878-277.2999878-274.2999878-408c-15.3000183-28.4000244-45.5-89.9000244-57.4000244-116.5
	c-19.8999939-44.5-39.3999939-93.9000244-52.2999878-132.2999878c-3.3999939-10.4000244-6.5-19.1000366-6.7000122-19.3000488
	C286.4999695,610.272522,281.3999634,615.5725098,275.3999634,622.272522z"/>
</svg>
