<?xml version="1.0" encoding="utf-8"?>
<!-- Generator: Adobe Illustrator 25.3.1, SVG Export Plug-In . SVG Version: 6.00 Build 0)  -->
<svg version="1.1" id="图层_1" xmlns="http://www.w3.org/2000/svg" xmlns:xlink="http://www.w3.org/1999/xlink" x="0px" y="0px"
	 viewBox="0 0 1600 1600" style="enable-background:new 0 0 1600 1600;" xml:space="preserve">
<style type="text/css">
	.st0{fill:#32D7A0;}
</style>
<path class="st0" d="M574.1254272,114.1478882c0,0-1.7598877,4.1288834-3.6599121,7.2288895
	c-6.1999512,10.2000046-21.1999512,41.4000015-27.3999634,56.5999985c-3.2999878,8.1999969-7.9000244,21.1000061-10.2000122,28.5
	c-4,13-12.5,53.2999878-15.5,73c-8.6000061,57.3999939,0.5,127.7999878,27.5999756,214
	c18.2000122,57.8000183,46.3000488,113.5000305,78.9000244,156.5000305c24.4000244,32.1999512,51.7000122,59.5999756,92,92.0999756
	c21.8036499,17.3655396,22.1856079,19.5936279,22.1856079,19.5936279s-12.3500977-1.7506104-54.6856079-15.7936401
	c-144.9000244-46.2000122-223-93.2999878-275.2000122-166c-37.5-52.2000122-54.2999878-106.5999756-54.2999878-176
	c0-33.6000061,2.7999878-53.1999817,11.6000061-81.1999817c14-44.4000244,25.5-67.2000122,48.6000061-96.4000092
	c10.6999817-13.6000061,34.3999939-37.1000061,49.2999878-49c15.7018433-12.6815338,48.0065918-38.7628326,83-51.4000015
	C570.1655273,115.0767746,574.1254272,114.1478882,574.1254272,114.1478882z M1026.7354736,114.3547897
	c0,0,5.7301025,11.6219864,12.5300293,24.7219925c6.9000244,13.1999969,14.3000488,28.5,16.5,34.0999908
	c10.2000732,25.8000031,21.1000977,67.3000031,26.2000732,100.3000031c3,19.2999878,3.7999268,65.1000061,1.5,91.3999939
	c-6.2000732,71.8000183-25.5,138.9000244-58.7000732,204.7000122c-30.999939,61.5-72.0999756,114-125.8999634,161
	c-11,9.5999756-27.9000244,23.2000122-32.9000244,26.5c-2.3999634,1.5-4.1901855,3.6387329-4.1901855,3.6387329
	s15.4376221-1.3050537,38.09021-9.7387085c12.4000244-4.1000366,37.4000244-12.2000122,55.5-18
	c56.5-18.3000488,86.7999878-31.4000244,124.500061-53.8000488
	c72.1999512-42.8999634,125.5999756-102.1999512,151.3999023-167.9999695
	c5.9000244-14.8999939,12.6000977-47.1000061,14.6000977-69.7000122c2.3999023-28.2000122-0.1000977-78.2999878-5-99.2999878
	c-16.6000977-71.1000061-54-128.0000153-113.3000488-172.5000153c-22.5999756-17-65.5-41.1999969-91.3000488-51.5999985
	C1027.0655518,114.2767715,1026.7354736,114.3547897,1026.7354736,114.3547897z M271.3800659,312.0683289
	c0,0,0.6853638,6.9084778,1.3855591,13.608429c1.5,14.5,7,48.3000488,10.5998535,65.9000244
	c15.1000977,72,44.8000488,137.5999756,90.3000488,199.3000488c34,46.1999512,49.1999512,60.5,100.6000977,95.0999756
	c36,24.1999512,68.5,42.9000244,122.0998535,69.7999268c67.3000488,33.9000244,105.1000977,57.8000488,138.5,87.3000488
	c18.4001465,16.3000488,25,23.6999512,38.6999512,43c13.4001465,18.9000244,21.2001953,34.8000488,24.3000488,49.5999756
	c0.6000977,3.2000732,2.1989746,7.9194336,2.1989746,7.9194336s1.2011719-5.4194336,2.1010742-9.5194092
	c6.5-30.1999512,32.8000488-65.4000244,75.6999512-101.1999512c29.1999512-24.4000244,54.5-39.9000244,120.5-73.7000732
	c92.8000488-47.5,125.3000488-66.5,156.5-91.4000244c28.1999512-22.5999756,59.1999512-58,89.1999512-101.7999268
	c28.5-41.5,51.1000977-90.2000732,64.8000488-139c2.3000488-8.3000488,15.9001465-76.8000488,18.6000977-93.8000488
	c1.5998535-9.6999512,3.2965088-18.3710327,3.2965088-18.3710327s5.7033691,10.5974121,11.5039062,22.840271
	c9.0283203,19.0558472,20.6379395,44.7767944,23.4996338,52.6307373
	c23.1999512,64.7000732,33.4001465,133.8000488,27.0998535,184.2000732
	c-4.8999023,39.2999268-19.3999023,72.6999512-47.3000488,109.2999268
	c-13.5,17.8000488-37.8999023,38.9000244-63.6999512,55.2000732c-14.1999512,9-47.3999023,25.1999512-64.5,31.5
	c-31.0998535,11.5-43.6999512,14.5999756-91,22.5c-85.5,14.2999268-134.0998535,26.5-165.5,41.5999756
	c-36.3000488,17.5-54.3999023,29.6999512-77.8999023,52.4000244c-20,19.4000244-34.5,39.0999756-45.6000977,62
	c-12.6999512,25.9000244-16,40-16,67c0.1000977,16.5999756,0.4001465,20.1999512,2.4001465,28.5
	c5.7998047,23.0999756,14.8999023,40.5,30.2998047,57.5999756c23.1000977,25.5999756,51.8000488,42.9000244,87.2001953,52.5
	c7.6923218,2.0689697,14.8544922,3.3880615,14.8544922,3.3880615s9.2171021-5.4766846,17.2453613-10.6881104
	c8.3000488-5.2999268,16.6999512-10.4000244,18.6999512-11.1999512c6.8000488-2.9000244,15.9379883-3.9979248,25.5825195-3.0111084
	c6.2145996,0.8199463,12.9541016,2.1821289,18.5595703,3.6185303c7.3830566,1.8919678,13.8754883,4.3708496,13.8754883,4.3708496
	s-3.4943848,2.8344727-7.0209961,6.4421387c-8.3994141,8.5928955-25.3579102,25.7705078-44.7963867,45.279541
	c-39.3000488,39.4000244-52.7001953,53.5-62.5,65.8000488c-26.3000488,33.0999756-49.9001465,68.5999756-75.1000977,113.4000244
	c-10.8000488,19.0999756-45.8999023,85.7999268-54.8999023,104.2999268
	c-2.4001465,5.0999756-5.3430176,9.5753174-5.3430176,9.5753174s-3.9570312-6.5753174-26.2570801-49.3752441
	c-46.6000977-89.5-84.6999512-149.8000488-121.1999512-192c-3.5-4.1000977-27.8000488-28.7000732-53.9001465-54.7000732
	c-26.7998047-26.5999756-48.032959-48.7058105-48.032959-48.7058105s6.6330566-2.5941162,12.9331055-4.4941406
	c8.8999023-2.5999756,12.5014648-3.8432617,21.1015625-4.2432861c10.0998535-0.5,12.8984375,0.1433105,19.2983398,2.5432129
	c8.3000488,3.2000732,15.6999512,7.2000732,28.5,15.6000977l9.4001465,6.1999512l7.0998535-1.1999512
	c11-1.9000244,36.1000977-9.7000732,45.5-14.1000977c11-5.1999512,28.3000488-16.6999512,39-26.0999756
	c14.6000977-12.7999268,25-26.5999756,33.6000977-44.2999268c9.3999023-19.6000977,13.1999512-38.2000732,12.0998535-60.5
	c-1-21.3000488-6.3999023-41.2000732-17.0998535-63.5c-15-31-33.1999512-53.3000488-61.1999512-74.5999756
	c-39.4001465-30-70.9001465-45.3000488-122.4001465-59.3000488c-29.5-8-43.1999512-10.6999512-98.5-19.0999756
	c-42.5998535-6.5999756-62.3999023-10.8000488-84.3000488-18.0999756
	c-40.7998047-13.6000977-79.1999512-34.3000488-106.1999512-57.2000732c-20-17-38.9999847-39.0999756-50.5998383-58.9000244
	c-23.9001465-40.5999756-36.7001953-87.5999756-35.1000977-129.1999512c0.5-14.5,6.3000488-56.5999756,10.8000488-78.5
	c4.8999023-24.1999512,14.3000488-53.4000244,26-81c6.3999023-15,23.6999359-50.1999512,26.9999847-54.8000488
	C269.0654297,314.7767334,271.3800659,312.0683289,271.3800659,312.0683289z M799.9609985,1110.8322754
	c0,0-1.8954468,4.444458-3.095459,7.8444824c-5.7000122,15.8000488-13.9000244,27.9000244-28.9000244,42.8000488
	c-6.5999756,6.5999756-15.5999756,14.2999268-20.7999878,17.7999268
	c-11.8999634,8.1000977-30.5999756,17.1000977-42.7999878,20.7000732c-5.2000122,1.5999756-11.0358276,3.736084-11.0358276,3.736084
	s20.2358398,3.8638916,32.3358154,3.9638672c28.7000122,0,46.9000244-7.0999756,68.1000366-26.7999268l6.1999512-5.7000732
	l7.7000122,7.5c12.7000122,12.2000732,28.5,20.7000732,45.4000244,24.4000244c8.7999878,1.9000244,29.5,2.1999512,38.7999878,0.5
	c8.2000122-1.5,15.3753052-4.1503906,15.3753052-4.1503906s-4.175293-1.449585-7.5753174-2.449585
	c-32.7000122-9.8000488-63.3999634-30.5-81.5-55.0999756c-6-8.2000732-14.0999756-22.9000244-16.2999878-29.7000732
	C801.265564,1114.1767578,799.9609985,1110.8322754,799.9609985,1110.8322754z M799.3632202,1223.9727783
	c0,0-4.8977051,3.9040527-9.4976807,8.1040039c-11.0999756,9.8000488-26.4000244,20-38.4000244,25.4000244
	c-5.2999878,2.4000244-10.3745728,5.472168-10.3745728,5.472168s4.4746094,6.6278076,8.8745728,13.527832
	c17.4000244,26.6999512,28,44.2999268,38.3000488,64c6,11.2999268,12.2047119,22.4031982,12.2047119,22.4031982
	s4.2952881-8.3032227,9.3952637-18.1032715c18.9000244-36.3999023,31-56.8999023,42.7999878-72.5999756
	c4.1000366-5.4000244,7.6774292-9.9916992,7.6774292-9.9916992s-4.8774414-2.0083008-9.5773926-3.9083252
	c-11-4.3999023-22.7000122-11.6999512-38.2000122-24C805.8655396,1228.8768311,799.3632202,1223.9727783,799.3632202,1223.9727783z
	 M122.8655319,597.0767822c-5.0999985,13.2000122-13.6999969,48-16.6999969,66.9000244
	c-2.7000046,17.1999512-2.4000015,54.0999756,0.5999985,75c8.3000031,58.7999878,22.3999939,99.7999878,47.5,137.8999634
	c25,38,63.1000061,69.5,103.6000061,85.6000366c28.8999939,11.5,54.1000061,16.3999634,84.5,16.2999878
	c22.7000122,0,40-3.2000122,77.5-14.5c31.7000122-9.5,93.0999756-33.6000366,125-49.1000366
	c31.0999756-15.0999756,44.5999756-19.0999756,64.5-19.1999512c9.7999878,0,13.4000244,0.5,19.5,2.3999634
	c14.0999756,4.4000244,25.5,11.5,35.7000122,22.5c23.0999756,24.7000122,27.8999634,60.2000122,12.0999756,89.9000244
	c-11,20.499939-49.8999634,36.999939-93.2999878,39.6000366l-11,0.5999756l-1.2999878,4
	c-2.2000122,6.5-1.1000366,19.7999268,2.0999756,26.5c12.6000366,26.4000244,61.6000366,38.2999268,95.1000366,23.0999756
	c27.5-12.4000244,49-42.3000488,57.0999756-79.4000244c3.1365356-13.352478,3.5821533-32.7370605,1.0999756-47.1999512
	c-5.3999634-32.5-25.5999756-64.7000122-56.0999756-89.2000122c-23.9000244-19.2000122-56.4000244-34.6000366-94.9000244-45.2000122
	c-30.7999878-8.5-45.9024658-9.0409546-72.0668945-8.8688965c-26.1644287,0.1721191-55.6299133,1.8123779-66.3182678,1.0792847
	c-10.688385-0.7331543-19.2148132-3.2103882-19.2148132-3.2103882c-26.6000061-5.5-54.3999939-13.0999756-74.5-20.5999756
	c-31.8000183-11.8000488-72.2000122-40.5-111.9000092-79.4000244
	c-26.1999969-25.7999878-40.8999939-43.0999756-60.8000031-71.5999756c-5.6999969-8.3000488-15.0999908-21.8000488-20.8999939-30
	c-5.8000031-8.3000488-13.1000061-19.1000366-16.1999969-24.1000366c-3.1000061-5-6.6000061-9.8999634-7.7000046-10.8999634
	c-0.8329315-0.8660278-1.8475189-1.6737671-1.8475189-1.6737671S123.4399109,595.4685059,122.8655319,597.0767822z
	 M1458.7655029,618.6767578c-33.8999023,48.4000244-48.8999023,68.4000244-69.1999512,92.1000366
	c-53.0999756,61.8999634-113,100.5999756-179.6999512,116.0999756c-5.8000488,1.2999878-16.8000488,3.7000122-24.5,5.2999878
	c-15.3000488,3.1000366-83.0491943,1.4141235-83.0491943,1.4141235c-28.6472168,0.190979-39.5509033,1.3859253-66.2508545,7.4859009
	c-43.5999756,10.0999756-82,27.5999756-111,50.7000122c-22.7000122,18-42.7999878,52.5999756-49.9000244,85.7000122
	c-3.1488647,14.3421631-3.4591675,40.3952026,0.4000244,54.0999756c6.5999756,26.3000488,20,47.1999512,40.7999878,63.8000488
	c7.5999756,6.0999756,12.2999878,8.5,22.7999878,11.5c29.8000488,8.6999512,61.2000122,3.2999268,77.7000122-13.3000488
	c6.1000366-6.0999756,10.1000366-13.5,11.8999634-21.9000244c0.6555176-3.1837158,1.0041504-7.5292969,1.0457764-11.3431396
	c0.0473633-4.3320312-1.0457764-8.4567871-1.0457764-8.4567871s-8.3999634-1.4000244-17.1999512-2.4000244
	c-34.5-3.8000488-60.5-11.8000488-74.6000366-23c-14.2999878-11.3000488-24-36.2000122-22.7999878-58.5
	c1.5-27.8000488,17.1000366-50.8000488,43.2000122-63.5c26.7999878-13,52.5-11.5,87.500061,5.1999512
	c24.3999023,11.7000122,95.6999512,42.3000488,108.5,46.6000366c20.5,6.8999634,43.2999268,13.0999756,68,18.3999634
	c24,5.1000366,53.2999268,5,79.5-0.2999878c34.2999268-7,65.5999756-20.2999878,88.3999023-37.5999756
	c23.5-17.9000244,50.2000732-48.4000244,64.8000488-74.2999878c23.1999512-40.9000244,37.0999756-86.5,40.9000244-133.5
	c1.4000244-17.9000244,0.6999512-48.9000244-1.5999756-65.5c-1.7000732-12.3000488-8.5-44.2000122-11.2000732-52.5
	c-3.0999756-9.8000488-6.3133545-16.1127319-6.3133545-16.1127319S1467.6655273,605.9768066,1458.7655029,618.6767578z"/>
</svg>
