<?xml version="1.0" encoding="utf-8"?>
<!-- Generator: Adobe Illustrator 25.3.1, SVG Export Plug-In . SVG Version: 6.00 Build 0)  -->
<svg version="1.1" id="图层_1" xmlns="http://www.w3.org/2000/svg" x="0px" y="0px"
	 viewBox="0 0 1600 1600" style="enable-background:new 0 0 1600 1600;" xml:space="preserve">
<style type="text/css">
	.st0{fill:#73e6e6;}
</style>
<path class="st0" d="M791.8366089,77.6713028c-17.3999634,36.7000046-54.5,111.3000107-65.3999634,131.6000061
	c-28.6000366,53.1000061-60.3000488,105.2000122-107,176.1000061
	c-9.1000366,13.7000122-16.5285034,25.9377136-16.5285034,25.9377136s30.4284668-9.2377014,47.128479-15.9377136
	c8.7999878-3.6000061,16.5638428-6.550354,16.5638428-6.550354s15.236145,20.9503479,22.9361572,32.550354
	c44.7999878,67.2000122,78.4000244,148.0000305,97.7999878,234.6999817c4.2999878,19.1000366,9,46.5,10.6000366,61.5
	c0.6999512,6.2000122,2.1121216,12.1276245,2.1121216,12.1276245s0.8878784-3.8275757,1.2878418-7.6276245
	c1-10.7999878,5.4000244-38.5,8.6000366-54.1999512c16.5-80.1000366,45.8999634-156.9000244,85.5-222.9000244
	c9.3999634-15.7000122,28.5-44.3000183,35.5-53.1000061l2.5999756-3.2000122l13.7999878,5.7000122
	c34.0609131,13.7626343,49.8407593,16.7467346,49.8407593,16.7467346s-7.8407593-12.3467407-16.4407349-25.2467346
	c-59.5-89.7000122-93.7000122-147.8999939-131.7000122-224c-21.0999756-42.0999985-45.9000244-93.1000061-47.4000244-97.3000031
	c-0.5999756-1.5-1.3527222-3.3869553-1.3527222-3.3869553S795.9366455,69.0713043,791.8366089,77.6713028z M805.6365967,289.8713074
	c12.7000122,17.5,37.2000122,41.2000122,59.5,57.7999878c3.1000366,2.3000183,6.7092285,4.6960754,6.7092285,4.6960754
	s-4.1091919,7.8039246-8.0092163,15.4039307c-30.7999878,61.6000061-53.3999634,134-62,199.1000366
	c-0.84375,6.093689-1.9191895,12.3222656-1.9191895,12.3222656s-1.4120483-7.2160034-2.5808105-15.8222656
	c-8.5-62.0000305-29.2999878-129.3000183-58.7999878-189.9000244l-10.2000122-20.8999939l3.5-2.6000061
	c22.2000122-16.8000183,47.7000122-41,60.4000244-57.3999939c3.7000122-4.8000183,7.8518677-9.7609863,7.8518677-9.7609863
	S803.2366333,286.6712952,805.6365967,289.8713074z M183.5366058,464.5713196
	c79.0000153,117.1000061,103.4000092,158.3000183,160.3000031,270.8000183
	c11.1000061,22,21.2996521,41.3209839,21.2996521,41.3209839s0.7003479-2.0209961,1.0003357-3.5209961
	c0.2000122-1.5,2.1000061-10.7000122,4-20.2999878c2-9.6000366,4.3000183-23.1000366,5.2000122-29.9000244
	c0.7999878-6.7999878,1.8155823-13.2537842,1.8155823-13.2537842s6.4844055-0.5462036,13.7844238-1.3461914
	c67.6000061-7.2000122,140.4999695-2.7000122,212.6000061,13c37.9000244,8.2999878,88.2999878,23.8999634,119,36.8999634
	c8.4000244,3.5,16.4140015,6.4886475,16.4140015,6.4886475s-3.7139893-3.588623-7.9140015-6.588623
	c-36.7000122-26.2999878-86.7000122-74.7999878-123.7000122-119.7999878
	c-31.5999756-38.4000244-64.4000244-89.3000488-82.5999756-128.2000122
	c-7.1000366-15.3000183-14.1679993-31.5294189-14.1679993-31.5294189s3.3679504-2.8706055,7.2679749-5.6705933
	c7.9000244-5.7999878,27.0999756-21.8999939,37.5-31.6000061l7-6.3999939l-5.5-0.1000061c-3,0-16.2999878,0.7000122-29.4000244,1.5
	c-53.0999756,3.2999878-97.1999817,4.7000122-150.0999756,4.7999878c-65.2999878,0.1000061-77.7000122-0.5-191.8999939-8.7999878
	c-11.5-0.7999878-24.5708923-1.5-24.5708923-1.5S165.8366089,438.4713135,183.5366058,464.5713196z M448.4638672,514.4986572
	c0,0,22.3727417,33.4726562,30.17276,43.8726807c21.3999939,28.3999634,37.7999573,47.2999878,61.6000061,71
	c22,21.8999634,50.2999878,46.6999512,64.8999634,57c1.3125,0.906189,3.8670654,3.5079956,3.8670654,3.5079956
	s-6.31073-2.6517334-13.6670532-5.6080322c-49.7000122-20-107.6000061-34.8999634-160.7999878-41.3999634
	c-18.2000122-2.2000122-39.5-4-47.9000244-4c-4.7999878,0-9.7310791-0.1034546-9.7310791-0.1034546
	s-1.0689087-7.996582-2.0689087-15.3965454c-3.3999939-23.9000244-8.3999939-43.6000366-17.1000061-67.7000122
	c-2.7999878-7.6000366-4.8999939-14-4.7999878-14.2000122c0.1999817-0.0999756,6.6999817-1.2999878,14.2999878-2.5
	c23-3.7000122,51.4000244-11.9000244,71.5-20.5999756C447.436615,514.5712891,448.4638672,514.4986572,448.4638672,514.4986572z
	 M1384.3366699,434.3713074c-74.4000244,5.6000061-103.2000732,6.7999878-163,6.7000122
	c-49.9000244,0-94.3000488-1.3000183-140.5-4.2000122c-11.9233398-0.7299805-20.668457-1.2304077-26.9875488-1.5306091
	c-11.859375-0.5634155-15.7421875-0.4734192-15.7421875-0.4734192s4.9422607,5.4061584,10.1495361,10.1452637
	c10.52771,9.5812378,27.152832,23.506958,34.7801514,28.658783c2.5999756,1.7999878,5.9193115,4.6960449,5.9193115,4.6960449
	s-1.1740723,2.7142944-2.8363037,6.8867493c-4.2655029,10.7064819-13.7919922,30.8865662-22.282959,46.7171936
	c-31.9000244,59.0999756-71.7000732,111.7999878-123.4000244,163.4000244
	c-23.8000488,23.6999512-45.2000122,42.6999512-66.4000244,58.6999512c-7.2999878,5.5-13.4706421,10.8637085-13.4706421,10.8637085
	s4.7706299-1.6636963,9.3706665-3.6636963c56.6999512-24.5,133.0999756-44.5999756,197.9000244-51.7999878
	c52-5.7999878,106.2999268-5.9000244,150.6999512,0c1.7969971,0.2246094,4.2893066,0.453064,4.2893066,0.453064
	s0.3901367,2.7509766,0.8529053,6.1777344c0.3105469,2.2999268,0.6552734,5.4474487,1.1578369,9.7692261
	c0.9810791,7.848938,3.1894531,20.029541,5.3502197,30.4031372c2.2440186,10.7728271,5.15625,20.421814,5.15625,20.421814
	s8.5935059-17.125,18.4935303-37.125c10-19.8999634,20.0999756-39.7999878,22.5-44.1999512
	c2.2999268-4.4000244,8.3999023-15.9000244,13.5-25.5c20.1999512-37.9000244,41.6999512-75.4000244,62.6999512-108.9000244
	c15.8000488-25.0999756,83.9006348-125.9048157,84.9000244-127.2000122c0.9993896-1.295166,1.904541-3.0597534,1.904541-3.0597534
	S1429.4147949,431.0119324,1384.3366699,434.3713074z M1162.4366455,518.8713379
	c23.4000244,9.5999756,47.6999512,16.5,70.6999512,20.1999512c8.7919922,1.4452515,14.4453125,2.5109253,14.4453125,2.5109253
	s-1.1711426,3.1602783-2.2452393,5.1890869c-2.8000488,5.5-10.7000732,29.7999878-14,43.4000244
	c-1.9000244,7.5999756-4.6000977,21.2999878-6,30.5c-1.4000244,9.0999756-2.5147705,17.9294434-2.5147705,17.9294434
	s-4.7852783,0.2705688-9.2852783,0.2705688c-16.1999512,0-53.5,4-79.6999512,8.5999756
	c-43.3000488,7.5-89.8000488,20.7999878-129.4000244,36.7999878c-4.9000244,2-12.0855103,4.7167358-12.0855103,4.7167358
	s6.5855103-5.916748,13.0855103-11.1166992c39.1999512-31.2000122,77.0999756-69.7000122,108-109.5
	c12-15.5,25.7999268-35.1000366,32.2999268-45.7000122c2.5-4.2999878,5.7180176-8.3516846,5.7180176-8.3516846
	S1156.9366455,516.6713257,1162.4366455,518.8713379z M697.5366211,606.9713135c20.5,9.7000122,57.7999878,26.5999756,61.5999756,28
	l3.7025757,1.6082764l4.8974609,14.791748c7.7000122,23.6999512,25.5,96.7999878,30.7000122,125.8999634
	c1.0499878,5.9500122,2.1054688,8.5761719,2.1054688,8.5761719s1.2817383-3.4209595,2.3005371-8.4745483
	c0.2948608-1.4625244,0.6236572-3.1275024,0.9939575-5.0015869c8.7000122-44.6000366,22.5-100.9000244,31.1000366-127.1000366
	c0.5195312-1.597229,0.9576416-2.9204102,1.3513794-4.0272827c0.8740845-2.4576416,1.9331055-5.0543823,1.9331055-5.0543823
	s2.0844727-1.1098633,3.4154663-1.7183228c3.8000488-1.9000244,60.7000122-27.4000244,67.5-30.2999878
	c2-0.9000244,4.5779419-1.8729248,4.5779419-1.8729248s1.9220581,17.4729004,3.7221069,36.7728882
	c1.7999878,19.4000244,3.5999756,38,4,41.3000488l0.5999756,6l-14.5,15.5999756
	c-17.7000122,19.0999756-68.7000122,67.2999878-92.2000122,87.2000122
	c-1.5999756,1.3999634-3.5106812,3.7106323-3.5106812,3.7106323s8.7106934-2.6106567,17.5106812-5.5106201
	c39.2900391-13.0966797,83.7064819-26.2451782,109.1779785-32.5891724
	c9.925354-2.4719849,20.5102539-4.5527344,20.5102539-4.5527344s3.5479126,1.7891846,16.2976074,10.7871704
	c6.809021,4.8054199,16.5755005,11.8499756,30.8141479,22.1547241c11.4000244,8.2999878,21.6574707,15.869812,21.6574707,15.869812
	s-4.7574463,3.8302002-9.2574463,6.8302002s-19.7000122,13.6999512-33.7000122,23.6999512
	c-11.9500122,8.6000366-18.4603882,13.5283203-22.3104248,15.8782959c-1.8143311,1.1074829-3.6286621,2.3554688-3.6286621,2.3554688
	s-2.1884766-0.3751221-3.0609131-0.5337524c-21.2999878-3.5999756-69.2999878-17-121.5-34
	c-24.3999634-8-23.0836182-7.2354736-23.0836182-7.2354736s6.2836304,5.7354736,13.383606,11.9354858
	c35.6000366,31.7999878,68.4000244,63,84.8000488,80.7000122c6.6828003,7.1863403,13.1107788,13.6536255,13.1107788,13.6536255
	s-1.2501831,13.6907959-3.310791,33.6463623c-1.4000244,14-3.1000366,30.7999878-3.7999878,37.4000244
	c-0.9000244,9.5999756-1.2924194,12.6511841-1.2924194,12.6511841s-18.0076294-8.1511841-36.607605-16.6511841
	s-34.9000244-15.8000488-36.2000122-16.1000366c-1.4187012-0.5111084-3.7838745-1.6970215-3.7838745-1.6970215
	s-1.2788086-3.4077759-2.6091919-7.4378052c-7.9664917-24.1321411-26.5944824-98.9038086-33.1069336-134.4651489
	c-0.7312622-4.1062622-1.8475342-7.8344727-1.8475342-7.8344727s-1.1149292,3.1531982-1.5524292,5.734436
	c-2.1000366,11.3000488-14.4000244,67.1000366-18.7000122,84.6000366
	c-3.0420532,12.2949219-7.6907349,29.6105347-11.2477417,42.0701904c-2.055542,7.2002563-5.1245117,17.3247681-5.1245117,17.3247681
	s-3.527771,2.2050171-16.527771,7.8050537c-4.0999756,1.7999878-19.2000122,8.5-33.3999634,14.8999634
	c-14.3000488,6.4000244-26.9502563,11.7512207-26.9502563,11.7512207s-1.5497437-15.6511841-3.0497437-32.6511841
	c-1.5-17.1000366-3.3000488-35.5-4-41l-1.2000122-9.9000244l7.7000122-8.5999756
	c9.7999878-10.8000488,46.3999634-47,63.3999634-62.6000366c16.5-15.2000122,32.2999878-29.2999878,35.5-31.8999634
	c1.4000244-1.1000366,4.1710205-3.8527832,4.1710205-3.8527832s-9.4710083,2.652771-20.9710083,6.3527832
	c-45.9000244,15.1999512-85.9000244,26.8999634-112.9000244,33l-14.2999878,3.1999512l-6.7000122-4.5999756
	c-20.1999512-13.9000244-61.3398438-44.1516724-61.3398438-44.1516724s5.4398804-4.2483521,10.8398438-7.9483032
	c30.1000366-21.3000488,48.2000122-34.2000122,51.9000244-37.1000366c2.5999756-2.2000122,6.5227051-4.0895996,6.5227051-4.0895996
	s19.5917358,3.9638062,39.2846069,9.3140869c25.3114624,6.87677,59.4785767,17.1832886,93.3927002,28.3755493
	c6.7999878,2.1999512,14.1715088,4.4138184,14.1715088,4.4138184s-3.9714966-4.3138428-8.7715454-8.4138184
	c-8.5999756-7.4000244-11.5999756-10.1000366-36.2999878-32.8000488
	c-12.1771851-11.2523193-42.5306396-41.3342896-56.7713013-56.0484619
	c-4.2366333-4.3775024-8.4011841-8.9631348-8.4011841-8.9631348s-0.2687988-2.315979,0.4306641-11.5101929
	c0.4638062-6.0959473,1.3666992-15.4667358,2.8418579-30.1781616c2.1999512-22,4.6850586-42.5822144,4.6850586-42.5822144
	S690.2366333,603.5712891,697.5366211,606.9713135z M353.936615,844.5712891
	c-41.5,83.5-79.3000183,151.8000488-113.9000092,205.8000488c-9.8000031,15.1999512-49.0999908,74-68.5,102.5
	c-6.3000031,9.2999268-10.8777924,16.1485596-10.8777924,16.1485596s21.4777985-1.4486084,44.2778015-3.048584
	c132.2999878-9.6999512,187.1999817-10.1999512,315.1000061-3c20.2000122,1.0999756,32.5061646,1.8190918,40.3045654,1.9285889
	c0.954895,0.0039062,1.2479248-0.0631104,1.2479248-0.0631104s-1.7219238-1.7255859-2.8341064-2.9105225
	c-1.5523071-1.6536865-4.4460449-4.3204346-9.2183838-8.6549072c-14.2000122-13-21.4000244-19-31.5-26.3000488
	c-3.5394287-2.581665-7.4679871-5.4898682-7.4679871-5.4898682s2.5074158-6.255249,7.4679871-17.1101074
	c22.3999634-49.4000244,53.8999634-99.7000122,90-143.7000122c35.2000122-43.1000366,80.5-87.1000366,120.5999756-117.2999878
	c1.2189941-0.9111328,2.3632202-1.7235718,3.4039307-2.4562988c1.7879639-1.2589111,7.2522583-6.0211182,7.2522583-6.0211182
	s-6.522644,2.4306641-8.2453613,3.1898804c-8.5209351,3.7553101-25.1538086,10.2133789-39.7108154,15.2875366
	c-76,26.6999512-160.7999878,41.5-237.3999939,41.5c-20.1000061,0-58.3999939-2.4000244-73.3000183-4.6000366
	c-1.4261475-0.2037354-3.818634-0.3548584-3.818634-0.3548584s-0.3119507-2.9075928-0.9548035-7.5437622
	c-0.3653259-2.6348267-0.8042908-6.190918-1.4265442-11.0013428c-0.7194824-5.4172974-2.3703918-14.7572021-4.1112366-23.729187
	c-2.372467-12.2271729-5.3681641-24.380188-5.3681641-24.380188S359.6365967,833.1713257,353.936615,844.5712891z
	 M608.5739136,910.7015991c0,0-3.7373047,3.1697388-7.4373169,5.8696899c-21.3999634,15.6000366-63,54.3000488-85.5,79.5
	c-21.3999939,24-44.9999695,54.9000244-62.0999756,81.5c-2.6000061,4-4.6868286,7.6077881-4.6868286,7.6077881
	s-7.7131653-2.8077393-15.4131775-5.8077393c-23-9.0999756-44.1000061-15.0999756-66.3000183-18.7000732
	c-7.8999939-1.2999268-14.2999878-2.5999756-14.2999878-3c0-0.3999023,1.7999878-5.2999268,4.1000061-10.8999023
	c7.8999939-19.9000244,16.5-54.7000732,18.5-74.4000244c0.5625-5.53125,1.5166321-11.1671143,1.5166321-11.1671143
	s6.0833435-0.2610474,14.583374-0.6329346c64.6000061-3,137-18.7999878,201.7999878-44.1999512
	C608.6365967,910.3713379,608.5739136,910.7015991,608.5739136,910.7015991z M1234.4366455,824.9713135
	c-2.3000488,6.5-7.9000244,35.5999756-10.0999756,52.2999878c-0.8000488,6.6000366-1.4908447,12.5894165-1.4908447,12.5894165
	s-4.1523438,0.3894653-9.4685059,0.9506836c-9.6453857,1.0181885-24.9587402,2.350769-36.2407227,3.0599365
	c-53.6999512,3.1999512-116-1.9000244-176.3999634-14.5c-41.7000122-8.8000488-92.2000122-24.3000488-126.5-39
	c-5.9000244-2.5-12.8828735-4.9005127-12.8828735-4.9005127s6.4828491,5.5004883,13.7828369,11.0004883
	c73.7000122,56.4000244,145.6000366,140.7000122,188.2000732,220.5c9.5,17.9000244,25.939209,54.6242676,25.939209,54.6242676
	s-4.3392334,2.975708-9.1392822,6.5756836c-6.3826904,4.7297363-15.9282227,12.6643066-24.2893066,19.960083
	c-9.84729,8.5926514-17.967041,16.8978271-17.967041,16.8978271s9.0563965-0.1578369,19.1563721-0.8579102
	c35.6999512-2.2999268,79.9000244-4.2999268,123-5.5c65.3000488-1.7999268,113.6999512-0.0999756,215.0999756,7.3000488
	c23,1.5999756,43.9957275,2.9610596,43.9957275,2.9610596s-13.7956543-20.2611084-30.1956787-44.361084
	c-68.5999756-101.1999512-98.0999756-151.2999878-151.9000244-257.6999512
	c-11.8000488-23.4000244-21.7889404-43.8620605-21.7889404-43.8620605S1234.7399902,824.0970459,1234.4366455,824.9713135z
	 M1006.8366089,916.4713135c60.8999634,24.5,136.8999634,41.2000122,200.7000122,44.0999756
	c9.1922607,0.3900146,15.6791992,0.9313354,15.6791992,0.9313354s0.5222168,4.8954468,0.9207764,9.3687134
	c1.7000732,18.6999512,9.2000732,49.5999756,17.2000732,71c2.5,6.9000244,6.6430664,16.9681396,6.6430664,16.9681396
	s-2.1430664-0.2681885-17.3431396,2.2318115c-19.7999268,3.2000732-42.9000244,9.8000488-63.1999512,17.8000488
	c-8.4000244,3.2999268-16.4356689,6.7930908-16.4356689,6.7930908s-2.2644043-3.3930664-4.1643066-6.5931396
	c-8-13.5-28-41.1999512-42.9000244-59.6999512c-27.8000488-34.2000122-63.8000488-69.9000244-98.3000488-97.4000244
	c-6.5-5.0999756-14.2562866-11.3811035-14.2562866-11.3811035S995.8366089,912.0712891,1006.8366089,916.4713135z
	 M797.0870972,889.3728638c-1.7142944,11.9576416-4.4039917,28.1277466-6.7504883,39.7984619
	c-18.0999756,91.3999634-54.5,180.6000366-103.2000122,252.8999634
	c-14.1999512,21.2000732-21.3477783,29.4260254-21.3477783,29.4260254s-8.5521851-4.026001-15.9522095-7.1259766
	c-14.0999756-5.8000488-44.4000244-15.9000244-46-15.3000488c-0.5999756,0.2000732,4.1000366,7.9000244,10.2999878,17.3000488
	c50.6000366,76.5,84.2000122,131.6999512,116.3000488,191.5c8.3999634,15.6999512,42.1999512,84.0999756,60.3999634,122.1999512
	c4.7000122,9.7000732,9.2815552,18.7443848,9.2815552,18.7443848s0.8184814-1.8443604,1.2184448-2.9443359
	c1.7999878-5.6999512,58.6000366-120.3000488,71.6000366-144.5c29.0999756-54.2000732,63.3999634-110.5,114-186.8000488
	c5.5-8.1999512,10.3959351-15.9598389,10.3959351-15.9598389s-10.3945923,2.4060059-21.7011108,6.2412109
	c-8.918335,3.0251465-19.3787842,6.8704834-28.5948486,10.6186523c-7.4000244,3-13.2412109,5.7156982-13.2412109,5.7156982
	s-2.8138428-3.0977783-5.8679199-7.3343506c-5.8410645-8.1025391-15.1182861-21.5255127-21.2908936-30.9813232
	c-45.1999512-69-79.0999756-154.2000122-97.2999878-244c-2.6064453-12.8152466-5.1080933-27.5175781-6.7078857-39.1351318
	c-0.6098022-4.4282837-2.8187256-19.7614136-2.8187256-19.7614136S798.1489868,881.9658203,797.0870972,889.3728638z
	 M801.7366333,1033.0712891c8.7000122,65.0999756,31.5,137.8000488,62.7000122,200c3.5,7,7.182373,13.9963379,7.182373,13.9963379
	s-4.9824219,3.8037109-9.9824219,7.6036377c-19.0999756,14.5-39.8999634,34.8000488-54.7999878,53.4000244
	c-3.3999634,4.3000488-7.4881592,8.720459-7.4881592,8.720459s-2.9118042-3.720459-5.3118286-6.9204102
	c-13.2999878-18.3000488-34.9000244-39.0999756-62.7000122-60.4000244l-3-2.3000488l10.7000122-21.8999023
	c29.5-60.4000244,50.0999756-127.4000244,58.4000244-189.8000488c0.8999634-6.9000244,2.6815186-15.1344604,2.6815186-15.1344604
	S801.1365967,1027.9713135,801.7366333,1033.0712891z"/>
</svg>
